<?xml version="1.0" encoding="UTF-8"?>
<svg id="Layer_2" data-name="Layer 2" xmlns="http://www.w3.org/2000/svg" viewBox="0 0 605.02 361.69">
  <defs>
    <style>
      .cls-1 {
        fill: #c0cf9c;
      }

      .cls-2 {
        fill: #54514d;
      }

      .cls-3 {
        fill: #417839;
      }

      .cls-4 {
        fill: #81c13e;
      }
    </style>
  </defs>
  <g id="Layer_1-2" data-name="Layer 1">
    <g>
      <path class="cls-1" d="M17.51,9.06C10.89,13.43.68,20.17.03,30.27c-3.35,52.22,258.92,42.3,358.25,199.42,31.32,49.54,28.08,86.65,72.09,112.5,61.15,35.92,159.43,18.34,172.97-21.37,7.24-21.23-10.96-45.22-16.78-52.9-38.8-51.15-101.28-38.36-183.49-70.99-38.69-15.36-26.68-18.92-122.87-81.77C157.76,35.15,66.4-23.23,17.51,9.06Z"/>
      <path class="cls-2" d="M570.26,317.14c-13.49,26.04-85.18,35.32-130.06,4.3-25.21-17.43-46.11-50.44-41.66-70.47,11.31,26.22,40.92,52.8,71.15,65.01,30.62,12.36,73.46,14.68,100.57,1.16Z"/>
      <path class="cls-4" d="M419.99,291.4c39.42,45.13,100.85,41.07,110.86,40.41,12.86-.85,35.22-2.62,43.69-17.48,2.51-4.4,3.23-8.95,3.28-15.84.12-17.96-4.41-38.03-31.13-86.83-10.49-19.16-13.39-22.64-18.57-24.58-10.26-3.84-17.41,2.9-48.06,14.75-23.2,8.97-25.51,7.58-43.69,15.84-21.91,9.95-32.87,14.93-36.52,24.12-7.25,18.26,13.34,41.83,20.14,49.61Z"/>
      <path class="cls-3" d="M414.72,254.45c1.4,4.09,13.69,38.05,48.06,48.62,17.87,5.49,33.48,2.13,40.8,0-12.02-2.16-29.66-6.76-48.81-17.31-18.72-10.32-31.83-22.45-40.05-31.31Z"/>
      <path class="cls-3" d="M490.81,279.57c-.36,1.43,19.07,11.22,42.6,9.83,16.43-.97,30.14-7.11,29.85-8.37-.26-1.18-12.65,2.34-32.04,2.55-25.06.26-40.1-5.24-40.41-4Z"/>
      <path class="cls-3" d="M464.72,222.29c-1.68.82-.07,7.78,1.7,12.14,1.05,2.59,3.82,9.14,10.92,13.47,8.21,5.01,16.56,3.65,20.75,2.91,5.29-.92,11.85-3.2,11.65-4.73-.29-2.29-13.64,1.34-26.21-5.46-12.38-6.7-16.49-19.46-18.81-18.33Z"/>
    </g>
  </g>
</svg>