<?xml version="1.0" encoding="UTF-8"?>
<svg xmlns="http://www.w3.org/2000/svg" viewBox="0 0 749.38 749.36">
  <defs>
    <style>
      .cls-1 {
        opacity: .57;
      }

      .cls-2 {
        fill: #fcffc0;
      }

      .cls-3 {
        opacity: .8;
      }

      .cls-3, .cls-4 {
        fill: #b1c928;
      }

      .cls-5 {
        isolation: isolate;
      }

      .cls-6 {
        opacity: .42;
      }

      .cls-6, .cls-7 {
        fill: #466b38;
      }

      .cls-8 {
        fill: #417839;
      }

      .cls-9 {
        fill: #506800;
      }

      .cls-10 {
        fill: #64dd4e;
        opacity: .23;
      }

      .cls-7 {
        opacity: .94;
      }

      .cls-11 {
        fill: #94b70c;
      }

      .cls-12 {
        fill: #dbd0a1;
      }

      .cls-13 {
        fill: #81c13e;
      }

      .cls-14 {
        fill: #f2e8b3;
      }

      .cls-15, .cls-16 {
        opacity: .5;
      }

      .cls-16 {
        mix-blend-mode: multiply;
      }
    </style>
  </defs>
  <g class="cls-5">
    <g id="Layer_2" data-name="Layer 2">
      <g id="Layer_1-2" data-name="Layer 1">
        <g>
          <path class="cls-8" d="M661.56,615.7c-49.91,59.4-114.36,99.43-183.75,119.21-115.66,33-245.11,9.83-344.13-73.36C-24.76,528.43-45.29,292.07,87.8,133.65,147.34,62.78,227.58,19.51,312.28,5.27c.09,0,.15-.03.21-.06,104.48-17.55,215.75,9.08,303.24,82.59,158.42,133.08,178.95,369.47,45.83,527.9Z"/>
          <path class="cls-10" d="M611.52,573.66c-41.2,49.04-94.41,82.09-151.7,98.42-95.49,27.24-202.36,8.12-284.11-60.57C44.91,501.62,27.97,306.48,137.84,175.69c49.16-58.51,115.4-94.23,185.33-105.99.07,0,.12-.02.17-.05,86.26-14.49,178.12,7.5,250.35,68.19,130.79,109.87,147.73,305.02,37.84,435.82Z"/>
          <path class="cls-6" d="M148.4,162.59c43.81-46.72,98.75-76.81,156.84-89.99,32.45-7.37,65.89-9.47,98.95-6.25-24.33-.28-48.68,2.29-72.5,7.7-58.1,13.18-113.03,43.27-156.84,89.99-116.87,124.61-110.6,320.39,13.99,437.23,51.75,48.54,115.77,75.82,181.3,82.21-74.57-.89-149.06-28.61-207.75-83.66-124.59-116.84-130.87-312.63-13.99-437.23Z"/>
          <g>
            <path class="cls-14" d="M96.88,149.9c9.36-11.14,25.97-12.59,37.11-3.23l81.39,68.38c83.35-81.02,216.17-87.33,307.09-10.94,96.93,81.44,109.5,226.05,28.05,322.99-81.44,96.93-226.06,109.49-322.99,28.05-89.32-75.05-107.01-203.73-45.5-299.32l-81.92-68.83c-11.14-9.36-12.57-25.97-3.22-37.1Z"/>
            <g>
              <path class="cls-8" d="M341.4,180.78c-37.35,10.65-72.03,32.18-98.9,64.17-71.65,85.28-60.59,212.49,24.69,284.14,47.12,39.59,107.04,53.93,163.31,44.42-62.26,17.76-131.94,5.29-185.23-39.49-85.28-71.65-96.33-198.88-24.69-284.14,32.05-38.15,75.23-61.44,120.83-69.1Z"/>
              <path class="cls-13" d="M242.5,244.95c26.87-31.99,61.55-53.52,98.9-64.17.05,0,.08-.02.12-.03,56.24-9.45,116.12,4.89,163.21,44.45,85.27,71.64,96.32,198.87,24.67,284.14-26.86,31.97-61.55,53.52-98.9,64.17-56.27,9.51-116.19-4.83-163.31-44.42-85.28-71.65-96.34-198.86-24.69-284.14Z"/>
            </g>
            <g class="cls-1">
              <path class="cls-12" d="M536.05,513.66c-27.36,33.03-62.7,55.3-100.75,66.31-63.42,18.35-134.4,5.47-188.69-40.81-86.87-74.04-98.13-205.5-25.16-293.6,32.66-39.42,76.65-63.49,123.09-71.4.05-.01.08-.02.12-.04,57.28-9.76,118.29,5.05,166.26,45.94,86.86,74.02,98.12,205.48,25.13,293.6Z"/>
            </g>
            <g>
              <path class="cls-11" d="M374.99,581.28c-111.2,0-201.67-90.47-201.67-201.67s90.47-201.67,201.67-201.67,201.67,90.47,201.67,201.67-90.47,201.67-201.67,201.67Z"/>
              <g class="cls-15">
                <path class="cls-2" d="M374.99,548.71c-93.76,2.69-172.35-75.59-171.87-169.1-.7-67.89,43.32-133.01,106.66-157.47,20.74-8.23,43.08-12.24,65.21-11.63-22.13.62-44.04,5.35-64.17,14.15-83.77,35.75-124.76,134.39-89.62,218.64,24.87,61.89,87.15,104.24,153.79,105.41h0Z"/>
              </g>
              <path class="cls-4" d="M374.99,506.13c-91.57,2.87-154.87-91.98-119.29-175.92,19.3-46.92,68.47-79.39,119.29-77.1-49.46,1.19-96.19,33.14-114.45,79.12-33.47,81.89,26.55,171.22,114.45,173.9h0Z"/>
              <path class="cls-3" d="M374.99,456.02c-42.13,0-76.41-34.28-76.41-76.41s34.28-76.41,76.41-76.41,76.41,34.28,76.41,76.41-34.28,76.41-76.41,76.41Z"/>
              <g>
                <circle class="cls-9" cx="354.95" cy="200.49" r="5.01"/>
                <path class="cls-9" d="M272.28,243.08c0,2.77-2.24,5.01-5.01,5.01s-5.01-2.24-5.01-5.01,2.24-5.01,5.01-5.01,5.01,2.24,5.01,5.01Z"/>
                <path class="cls-9" d="M221.76,302.37c0,2.77-2.24,5.01-5.01,5.01s-5.01-2.24-5.01-5.01,2.24-5.01,5.01-5.01,5.01,2.24,5.01,5.01Z"/>
                <path class="cls-9" d="M264.34,268.97c0,2.77-2.24,5.01-5.01,5.01s-5.01-2.24-5.01-5.01,2.24-5.01,5.01-5.01,5.01,2.24,5.01,5.01Z"/>
                <circle class="cls-9" cx="312.78" cy="219.7" r="5.01"/>
                <path class="cls-9" d="M244.3,273.14c0,2.77-2.24,5.01-5.01,5.01s-5.01-2.24-5.01-5.01,2.24-5.01,5.01-5.01,5.01,2.24,5.01,5.01Z"/>
                <path class="cls-9" d="M237.2,290.05c0,4.03-3.27,7.3-7.3,7.3s-7.3-3.27-7.3-7.3,3.27-7.3,7.3-7.3,7.3,3.27,7.3,7.3Z"/>
                <path class="cls-9" d="M209.64,324.95c0,4.03-3.27,7.3-7.3,7.3s-7.3-3.27-7.3-7.3,3.27-7.3,7.3-7.3,7.3,3.27,7.3,7.3Z"/>
                <path class="cls-9" d="M222.09,347.3c-.58,3.99-4.29,6.76-8.28,6.17s-6.76-4.29-6.17-8.28,4.29-6.76,8.28-6.17,6.76,4.29,6.17,8.28Z"/>
                <path class="cls-9" d="M214.37,415.74c-.58,3.99-4.29,6.76-8.28,6.17s-6.76-4.29-6.17-8.28c.58-3.99,4.29-6.76,8.28-6.17,3.99.58,6.76,4.29,6.17,8.28Z"/>
                <path class="cls-9" d="M478.46,331.5c-.58,3.99-4.29,6.76-8.28,6.17s-6.76-4.29-6.17-8.28c.58-3.99,4.29-6.76,8.28-6.17,3.99.58,6.76,4.29,6.17,8.28Z"/>
                <circle class="cls-9" cx="493.78" cy="270.01" r="7.3" transform="translate(-41.83 97.24) rotate(-10.79)"/>
                <path class="cls-9" d="M527.31,448c-.58,3.99-4.29,6.76-8.28,6.17-3.99-.58-6.76-4.29-6.17-8.28.58-3.99,4.29-6.76,8.28-6.17s6.76,4.29,6.17,8.28Z"/>
                <circle class="cls-9" cx="438.98" cy="546.52" r="7.3" transform="translate(-94.58 91.87) rotate(-10.79)"/>
                <path class="cls-9" d="M532.63,469.29c-.58,3.99-4.29,6.76-8.28,6.17-3.99-.58-6.76-4.29-6.17-8.28.58-3.99,4.29-6.76,8.28-6.17,3.99.58,6.76,4.29,6.17,8.28Z"/>
                <path class="cls-9" d="M503.51,507.49c-.58,3.99-4.29,6.76-8.28,6.17-3.99-.58-6.76-4.29-6.17-8.28.58-3.99,4.29-6.76,8.28-6.17s6.76,4.29,6.17,8.28Z"/>
                <path class="cls-9" d="M490.36,530.04c-.58,3.99-4.29,6.76-8.28,6.17s-6.76-4.29-6.17-8.28,4.29-6.76,8.28-6.17c3.99.58,6.76,4.29,6.17,8.28Z"/>
                <path class="cls-9" d="M483.83,502.29c-.58,3.99-4.29,6.76-8.28,6.17-3.99-.58-6.76-4.29-6.17-8.28.58-3.99,4.29-6.76,8.28-6.17s6.76,4.29,6.17,8.28Z"/>
                <path class="cls-9" d="M516.04,342.15c-.58,3.99-4.29,6.76-8.28,6.17s-6.76-4.29-6.17-8.28c.58-3.99,4.29-6.76,8.28-6.17,3.99.58,6.76,4.29,6.17,8.28Z"/>
                <path class="cls-9" d="M430.86,261.98c-.58,3.99-4.29,6.76-8.28,6.17-3.99-.58-6.76-4.29-6.17-8.28s4.29-6.76,8.28-6.17,6.76,4.29,6.17,8.28Z"/>
                <path class="cls-9" d="M244.75,499.58c-.58,3.99-4.29,6.76-8.28,6.17-3.99-.58-6.76-4.29-6.17-8.28.58-3.99,4.29-6.76,8.28-6.17,3.99.58,6.76,4.29,6.17,8.28Z"/>
                <path class="cls-9" d="M415.93,553.44c-.58,3.99-4.29,6.76-8.28,6.17-3.99-.58-6.76-4.29-6.17-8.28.58-3.99,4.29-6.76,8.28-6.17,3.99.58,6.76,4.29,6.17,8.28Z"/>
                <path class="cls-9" d="M367.19,503.42c-.58,3.99-4.29,6.76-8.28,6.17-3.99-.58-6.76-4.29-6.17-8.28s4.29-6.76,8.28-6.17c3.99.58,6.76,4.29,6.17,8.28Z"/>
                <path class="cls-9" d="M228.85,326.59c0,2.77-2.24,5.01-5.01,5.01s-5.01-2.24-5.01-5.01,2.24-5.01,5.01-5.01,5.01,2.24,5.01,5.01Z"/>
                <path class="cls-9" d="M206.72,375.86c0,2.77-2.24,5.01-5.01,5.01s-5.01-2.24-5.01-5.01,2.24-5.01,5.01-5.01,5.01,2.24,5.01,5.01Z"/>
                <circle class="cls-9" cx="197.12" cy="391.3" r="5.01"/>
                <path class="cls-9" d="M230.11,359.99c0,2.77-2.24,5.01-5.01,5.01s-5.01-2.24-5.01-5.01,2.24-5.01,5.01-5.01,5.01,2.24,5.01,5.01Z"/>
                <circle class="cls-9" cx="223.01" cy="448.51" r="5.01"/>
                <circle class="cls-9" cx="266.01" cy="500.28" r="5.01"/>
                <circle class="cls-9" cx="226.77" cy="480.66" r="5.01"/>
                <path class="cls-9" d="M256.41,458.11c0,2.77-2.24,5.01-5.01,5.01s-5.01-2.24-5.01-5.01,2.24-5.01,5.01-5.01,5.01,2.24,5.01,5.01Z"/>
                <path class="cls-9" d="M269.77,514.48c0,2.77-2.24,5.01-5.01,5.01s-5.01-2.24-5.01-5.01,2.24-5.01,5.01-5.01,5.01,2.24,5.01,5.01Z"/>
                <path class="cls-9" d="M285.64,497.36c0,2.77-2.24,5.01-5.01,5.01s-5.01-2.24-5.01-5.01,2.24-5.01,5.01-5.01,5.01,2.24,5.01,5.01Z"/>
                <path class="cls-9" d="M304.01,462.7c0,2.77-2.24,5.01-5.01,5.01s-5.01-2.24-5.01-5.01,2.24-5.01,5.01-5.01,5.01,2.24,5.01,5.01Z"/>
                <path class="cls-9" d="M346.6,466.88c0,2.77-2.24,5.01-5.01,5.01s-5.01-2.24-5.01-5.01,2.24-5.01,5.01-5.01,5.01,2.24,5.01,5.01Z"/>
                <path class="cls-9" d="M322.8,465.62c0,2.77-2.24,5.01-5.01,5.01s-5.01-2.24-5.01-5.01,2.24-5.01,5.01-5.01,5.01,2.24,5.01,5.01Z"/>
                <path class="cls-9" d="M340.33,436.82c0,2.77-2.24,5.01-5.01,5.01s-5.01-2.24-5.01-5.01,2.24-5.01,5.01-5.01,5.01,2.24,5.01,5.01Z"/>
                <path class="cls-9" d="M339.5,452.68c0,2.77-2.24,5.01-5.01,5.01s-5.01-2.24-5.01-5.01,2.24-5.01,5.01-5.01,5.01,2.24,5.01,5.01Z"/>
                <path class="cls-9" d="M293.15,427.63c0,2.77-2.24,5.01-5.01,5.01s-5.01-2.24-5.01-5.01,2.24-5.01,5.01-5.01,5.01,2.24,5.01,5.01Z"/>
                <path class="cls-9" d="M311.52,427.63c0,2.77-2.24,5.01-5.01,5.01s-5.01-2.24-5.01-5.01,2.24-5.01,5.01-5.01,5.01,2.24,5.01,5.01Z"/>
                <path class="cls-9" d="M286.89,458.11c0,2.77-2.24,5.01-5.01,5.01s-5.01-2.24-5.01-5.01,2.24-5.01,5.01-5.01,5.01,2.24,5.01,5.01Z"/>
                <path class="cls-9" d="M251.82,366.25c0,2.77-2.24,5.01-5.01,5.01s-5.01-2.24-5.01-5.01,2.24-5.01,5.01-5.01,5.01,2.24,5.01,5.01Z"/>
                <path class="cls-9" d="M322.8,304.87c0,2.77-2.24,5.01-5.01,5.01s-5.01-2.24-5.01-5.01,2.24-5.01,5.01-5.01,5.01,2.24,5.01,5.01Z"/>
                <circle class="cls-9" cx="286.47" cy="347.88" r="5.01"/>
                <path class="cls-9" d="M331.15,259.36c0,2.77-2.24,5.01-5.01,5.01s-5.01-2.24-5.01-5.01,2.24-5.01,5.01-5.01,5.01,2.24,5.01,5.01Z"/>
                <path class="cls-9" d="M363.4,240.58c0,2.77-2.24,5.01-5.01,5.01s-5.01-2.24-5.01-5.01,2.24-5.01,5.01-5.01,5.01,2.24,5.01,5.01Z"/>
                <path class="cls-9" d="M304.22,272.52c0,2.77-2.24,5.01-5.01,5.01s-5.01-2.24-5.01-5.01,2.24-5.01,5.01-5.01,5.01,2.24,5.01,5.01Z"/>
                <path class="cls-9" d="M326.14,287.34c0,2.77-2.24,5.01-5.01,5.01s-5.01-2.24-5.01-5.01,2.24-5.01,5.01-5.01,5.01,2.24,5.01,5.01Z"/>
                <circle class="cls-9" cx="336.58" cy="294.02" r="5.01"/>
                <path class="cls-9" d="M277.7,328.26c0,2.77-2.24,5.01-5.01,5.01s-5.01-2.24-5.01-5.01,2.24-5.01,5.01-5.01,5.01,2.24,5.01,5.01Z"/>
                <path class="cls-9" d="M282.3,396.73c0,2.77-2.24,5.01-5.01,5.01s-5.01-2.24-5.01-5.01,2.24-5.01,5.01-5.01,5.01,2.24,5.01,5.01Z"/>
                <circle class="cls-9" cx="336.89" cy="409.99" r="2.77"/>
                <path class="cls-9" d="M386.32,389.01c0,1.53-1.24,2.77-2.77,2.77s-2.77-1.24-2.77-2.77,1.24-2.77,2.77-2.77,2.77,1.24,2.77,2.77Z"/>
                <path class="cls-9" d="M415.13,373.66c0,1.53-1.24,2.77-2.77,2.77s-2.77-1.24-2.77-2.77,1.24-2.77,2.77-2.77,2.77,1.24,2.77,2.77Z"/>
                <path class="cls-9" d="M386.63,380.24c0,1.53-1.24,2.77-2.77,2.77s-2.77-1.24-2.77-2.77,1.24-2.77,2.77-2.77,2.77,1.24,2.77,2.77Z"/>
                <path class="cls-9" d="M396.02,394.33c0,1.53-1.24,2.77-2.77,2.77s-2.77-1.24-2.77-2.77,1.24-2.77,2.77-2.77,2.77,1.24,2.77,2.77Z"/>
                <path class="cls-9" d="M386.32,419.38c0,1.53-1.24,2.77-2.77,2.77s-2.77-1.24-2.77-2.77,1.24-2.77,2.77-2.77,2.77,1.24,2.77,2.77Z"/>
                <path class="cls-9" d="M372.85,438.49c0,1.53-1.24,2.77-2.77,2.77s-2.77-1.24-2.77-2.77,1.24-2.77,2.77-2.77,2.77,1.24,2.77,2.77Z"/>
                <path class="cls-9" d="M404.16,404.35c0,1.53-1.24,2.77-2.77,2.77s-2.77-1.24-2.77-2.77,1.24-2.77,2.77-2.77,2.77,1.24,2.77,2.77Z"/>
                <path class="cls-9" d="M418.57,382.43c0,1.53-1.24,2.77-2.77,2.77s-2.77-1.24-2.77-2.77,1.24-2.77,2.77-2.77,2.77,1.24,2.77,2.77Z"/>
                <path class="cls-9" d="M386.63,402.16c0,1.53-1.24,2.77-2.77,2.77s-2.77-1.24-2.77-2.77,1.24-2.77,2.77-2.77,2.77,1.24,2.77,2.77Z"/>
                <path class="cls-9" d="M387.88,436.24c0,1.53-1.24,2.77-2.77,2.77s-2.77-1.24-2.77-2.77,1.24-2.77,2.77-2.77,2.77,1.24,2.77,2.77Z"/>
                <path class="cls-9" d="M431.41,438.49c0,1.53-1.24,2.77-2.77,2.77s-2.77-1.24-2.77-2.77,1.24-2.77,2.77-2.77,2.77,1.24,2.77,2.77Z"/>
                <path class="cls-9" d="M520.66,424.39c0,1.53-1.24,2.77-2.77,2.77s-2.77-1.24-2.77-2.77,1.24-2.77,2.77-2.77,2.77,1.24,2.77,2.77Z"/>
                <path class="cls-9" d="M504.69,427.84c0,1.53-1.24,2.77-2.77,2.77s-2.77-1.24-2.77-2.77,1.24-2.77,2.77-2.77,2.77,1.24,2.77,2.77Z"/>
                <path class="cls-9" d="M473.06,450.7c0,1.53-1.24,2.77-2.77,2.77s-2.77-1.24-2.77-2.77,1.24-2.77,2.77-2.77,2.77,1.24,2.77,2.77Z"/>
                <path class="cls-9" d="M522.54,486.03c0,1.53-1.24,2.77-2.77,2.77s-2.77-1.24-2.77-2.77,1.24-2.77,2.77-2.77,2.77,1.24,2.77,2.77Z"/>
                <path class="cls-9" d="M466.48,540.26c0,1.53-1.24,2.77-2.77,2.77s-2.77-1.24-2.77-2.77,1.24-2.77,2.77-2.77,2.77,1.24,2.77,2.77Z"/>
                <circle class="cls-9" cx="453.07" cy="531.18" r="2.77"/>
                <circle class="cls-9" cx="511" cy="498.92" r="2.77"/>
                <path class="cls-9" d="M438.3,529.61c0,1.53-1.24,2.77-2.77,2.77s-2.77-1.24-2.77-2.77,1.24-2.77,2.77-2.77,2.77,1.24,2.77,2.77Z"/>
                <path class="cls-9" d="M346.55,528.36c0,1.53-1.24,2.77-2.77,2.77s-2.77-1.24-2.77-2.77,1.24-2.77,2.77-2.77,2.77,1.24,2.77,2.77Z"/>
                <path class="cls-9" d="M322.43,508.63c0,1.53-1.24,2.77-2.77,2.77s-2.77-1.24-2.77-2.77,1.24-2.77,2.77-2.77,2.77,1.24,2.77,2.77Z"/>
                <path class="cls-9" d="M322.75,524.29c0,1.53-1.24,2.77-2.77,2.77s-2.77-1.24-2.77-2.77,1.24-2.77,2.77-2.77,2.77,1.24,2.77,2.77Z"/>
                <path class="cls-9" d="M240.7,474.81c0,1.53-1.24,2.77-2.77,2.77s-2.77-1.24-2.77-2.77,1.24-2.77,2.77-2.77,2.77,1.24,2.77,2.77Z"/>
                <circle class="cls-9" cx="255.16" cy="484.57" r="2.77"/>
                <path class="cls-9" d="M278.59,445.06c0,1.53-1.24,2.77-2.77,2.77s-2.77-1.24-2.77-2.77,1.24-2.77,2.77-2.77,2.77,1.24,2.77,2.77Z"/>
                <path class="cls-9" d="M264.19,423.14c0,1.53-1.24,2.77-2.77,2.77s-2.77-1.24-2.77-2.77,1.24-2.77,2.77-2.77,2.77,1.24,2.77,2.77Z"/>
                <path class="cls-9" d="M227.86,383.32c0,1.53-1.24,2.77-2.77,2.77s-2.77-1.24-2.77-2.77,1.24-2.77,2.77-2.77,2.77,1.24,2.77,2.77Z"/>
                <path class="cls-9" d="M240.07,382.43c0,1.53-1.24,2.77-2.77,2.77s-2.77-1.24-2.77-2.77,1.24-2.77,2.77-2.77,2.77,1.24,2.77,2.77Z"/>
                <path class="cls-9" d="M272.9,360.82c0,1.53-1.24,2.77-2.77,2.77s-2.77-1.24-2.77-2.77,1.24-2.77,2.77-2.77,2.77,1.24,2.77,2.77Z"/>
                <path class="cls-9" d="M254.22,381.81c0,1.53-1.24,2.77-2.77,2.77s-2.77-1.24-2.77-2.77,1.24-2.77,2.77-2.77,2.77,1.24,2.77,2.77Z"/>
                <path class="cls-9" d="M294.25,378.99c0,1.53-1.24,2.77-2.77,2.77s-2.77-1.24-2.77-2.77,1.24-2.77,2.77-2.77,2.77,1.24,2.77,2.77Z"/>
                <path class="cls-9" d="M232.87,402.16c0,1.53-1.24,2.77-2.77,2.77s-2.77-1.24-2.77-2.77,1.24-2.77,2.77-2.77,2.77,1.24,2.77,2.77Z"/>
                <circle class="cls-9" cx="247.38" cy="348.3" r="2.77"/>
                <path class="cls-9" d="M287.05,299.81c0,1.53-1.24,2.77-2.77,2.77s-2.77-1.24-2.77-2.77,1.24-2.77,2.77-2.77,2.77,1.24,2.77,2.77Z"/>
                <path class="cls-9" d="M303.64,252.42c0,1.53-1.24,2.77-2.77,2.77s-2.77-1.24-2.77-2.77,1.24-2.77,2.77-2.77,2.77,1.24,2.77,2.77Z"/>
                <circle class="cls-9" cx="546.07" cy="329.14" r="2.77"/>
                <path class="cls-9" d="M527.55,334.21c0,1.53-1.24,2.77-2.77,2.77s-2.77-1.24-2.77-2.77,1.24-2.77,2.77-2.77,2.77,1.24,2.77,2.77Z"/>
                <circle class="cls-9" cx="507.24" cy="304.72" r="2.77"/>
                <path class="cls-9" d="M567,341.98c0,1.53-1.24,2.77-2.77,2.77s-2.77-1.24-2.77-2.77,1.24-2.77,2.77-2.77,2.77,1.24,2.77,2.77Z"/>
                <path class="cls-9" d="M279.53,259.68c0,1.53-1.24,2.77-2.77,2.77s-2.77-1.24-2.77-2.77,1.24-2.77,2.77-2.77,2.77,1.24,2.77,2.77Z"/>
                <path class="cls-9" d="M329.64,221.79c0,1.53-1.24,2.77-2.77,2.77s-2.77-1.24-2.77-2.77,1.24-2.77,2.77-2.77,2.77,1.24,2.77,2.77Z"/>
                <path class="cls-9" d="M270.14,290.05c0,1.53-1.24,2.77-2.77,2.77s-2.77-1.24-2.77-2.77,1.24-2.77,2.77-2.77,2.77,1.24,2.77,2.77Z"/>
                <path class="cls-9" d="M262.62,439.79c0,1.53-1.24,2.77-2.77,2.77s-2.77-1.24-2.77-2.77,1.24-2.77,2.77-2.77,2.77,1.24,2.77,2.77Z"/>
                <path class="cls-9" d="M241.95,392.77c0,1.53-1.24,2.77-2.77,2.77s-2.77-1.24-2.77-2.77,1.24-2.77,2.77-2.77,2.77,1.24,2.77,2.77Z"/>
                <circle class="cls-9" cx="281.46" cy="316.93" r="2.77"/>
                <path class="cls-9" d="M348.74,344.23c0,1.53-1.24,2.77-2.77,2.77s-2.77-1.24-2.77-2.77,1.24-2.77,2.77-2.77,2.77,1.24,2.77,2.77Z"/>
                <circle class="cls-9" cx="355.68" cy="347.36" r="2.77"/>
                <path class="cls-9" d="M430.47,346.42c0,1.53-1.24,2.77-2.77,2.77s-2.77-1.24-2.77-2.77,1.24-2.77,2.77-2.77,2.77,1.24,2.77,2.77Z"/>
                <path class="cls-9" d="M415.7,272.52c0,1.53-1.24,2.77-2.77,2.77s-2.77-1.24-2.77-2.77,1.24-2.77,2.77-2.77,2.77,1.24,2.77,2.77Z"/>
                <path class="cls-9" d="M318.99,273.14c0,1.53-1.24,2.77-2.77,2.77s-2.77-1.24-2.77-2.77,1.24-2.77,2.77-2.77,2.77,1.24,2.77,2.77Z"/>
                <path class="cls-9" d="M283.24,228.99c0,1.53-1.24,2.77-2.77,2.77s-2.77-1.24-2.77-2.77,1.24-2.77,2.77-2.77,2.77,1.24,2.77,2.77Z"/>
                <path class="cls-9" d="M442.37,300.02c0,1.53-1.24,2.77-2.77,2.77s-2.77-1.24-2.77-2.77,1.24-2.77,2.77-2.77,2.77,1.24,2.77,2.77Z"/>
                <path class="cls-9" d="M389.13,284.42c0,1.53-1.24,2.77-2.77,2.77s-2.77-1.24-2.77-2.77,1.24-2.77,2.77-2.77,2.77,1.24,2.77,2.77Z"/>
                <path class="cls-9" d="M428.28,282.85c0,1.53-1.24,2.77-2.77,2.77s-2.77-1.24-2.77-2.77,1.24-2.77,2.77-2.77,2.77,1.24,2.77,2.77Z"/>
                <circle class="cls-9" cx="401.71" cy="281.55" r="2.77"/>
                <path class="cls-9" d="M381.36,311.66c0,1.53-1.24,2.77-2.77,2.77s-2.77-1.24-2.77-2.77,1.24-2.77,2.77-2.77,2.77,1.24,2.77,2.77Z"/>
                <path class="cls-9" d="M395.4,309.47c0,1.53-1.24,2.77-2.77,2.77s-2.77-1.24-2.77-2.77,1.24-2.77,2.77-2.77,2.77,1.24,2.77,2.77Z"/>
                <path class="cls-9" d="M408.86,307.9c0,1.53-1.24,2.77-2.77,2.77s-2.77-1.24-2.77-2.77,1.24-2.77,2.77-2.77,2.77,1.24,2.77,2.77Z"/>
                <path class="cls-9" d="M341.9,273.46c0,1.53-1.24,2.77-2.77,2.77s-2.77-1.24-2.77-2.77,1.24-2.77,2.77-2.77,2.77,1.24,2.77,2.77Z"/>
                <path class="cls-9" d="M355.68,265.31c0,1.53-1.24,2.77-2.77,2.77s-2.77-1.24-2.77-2.77,1.24-2.77,2.77-2.77,2.77,1.24,2.77,2.77Z"/>
                <path class="cls-9" d="M297.38,326.12c0,1.53-1.24,2.77-2.77,2.77s-2.77-1.24-2.77-2.77,1.24-2.77,2.77-2.77,2.77,1.24,2.77,2.77Z"/>
                <path class="cls-9" d="M351.56,356.44c0,1.53-1.24,2.77-2.77,2.77s-2.77-1.24-2.77-2.77,1.24-2.77,2.77-2.77,2.77,1.24,2.77,2.77Z"/>
                <path class="cls-9" d="M414.81,358.01c0,1.53-1.24,2.77-2.77,2.77s-2.77-1.24-2.77-2.77,1.24-2.77,2.77-2.77,2.77,1.24,2.77,2.77Z"/>
                <path class="cls-9" d="M456.46,344.85c0,1.53-1.24,2.77-2.77,2.77s-2.77-1.24-2.77-2.77,1.24-2.77,2.77-2.77,2.77,1.24,2.77,2.77Z"/>
                <path class="cls-9" d="M380.05,362.39c0,1.53-1.24,2.77-2.77,2.77s-2.77-1.24-2.77-2.77,1.24-2.77,2.77-2.77,2.77,1.24,2.77,2.77Z"/>
                <circle class="cls-9" cx="391.38" cy="347.36" r="2.77"/>
                <path class="cls-9" d="M306.78,397.78c0,1.53-1.24,2.77-2.77,2.77s-2.77-1.24-2.77-2.77,1.24-2.77,2.77-2.77,2.77,1.24,2.77,2.77Z"/>
                <path class="cls-9" d="M289.24,442.87c0,1.53-1.24,2.77-2.77,2.77s-2.77-1.24-2.77-2.77,1.24-2.77,2.77-2.77,2.77,1.24,2.77,2.77Z"/>
                <path class="cls-9" d="M422.95,502.99c0,1.53-1.24,2.77-2.77,2.77s-2.77-1.24-2.77-2.77,1.24-2.77,2.77-2.77,2.77,1.24,2.77,2.77Z"/>
                <path class="cls-9" d="M415.13,531.18c0,1.53-1.24,2.77-2.77,2.77s-2.77-1.24-2.77-2.77,1.24-2.77,2.77-2.77,2.77,1.24,2.77,2.77Z"/>
                <path class="cls-9" d="M325.25,536.5c0,1.53-1.24,2.77-2.77,2.77s-2.77-1.24-2.77-2.77,1.24-2.77,2.77-2.77,2.77,1.24,2.77,2.77Z"/>
                <path class="cls-9" d="M370.92,524.6c0,1.53-1.24,2.77-2.77,2.77s-2.77-1.24-2.77-2.77,1.24-2.77,2.77-2.77,2.77,1.24,2.77,2.77Z"/>
                <path class="cls-9" d="M457.4,513.64c0,1.53-1.24,2.77-2.77,2.77s-2.77-1.24-2.77-2.77,1.24-2.77,2.77-2.77,2.77,1.24,2.77,2.77Z"/>
                <circle class="cls-9" cx="456.83" cy="483.27" r="2.77"/>
                <path class="cls-9" d="M434.8,485.14c0,1.53-1.24,2.77-2.77,2.77s-2.77-1.24-2.77-2.77,1.24-2.77,2.77-2.77,2.77,1.24,2.77,2.77Z"/>
                <circle class="cls-9" cx="429.95" cy="460.41" r="2.77"/>
                <path class="cls-9" d="M508.76,393.08c0,1.53-1.24,2.77-2.77,2.77s-2.77-1.24-2.77-2.77,1.24-2.77,2.77-2.77,2.77,1.24,2.77,2.77Z"/>
                <path class="cls-9" d="M478.69,424.08c0,1.53-1.24,2.77-2.77,2.77s-2.77-1.24-2.77-2.77,1.24-2.77,2.77-2.77,2.77,1.24,2.77,2.77Z"/>
                <path class="cls-9" d="M451.19,459.47c0,1.53-1.24,2.77-2.77,2.77s-2.77-1.24-2.77-2.77,1.24-2.77,2.77-2.77,2.77,1.24,2.77,2.77Z"/>
                <path class="cls-9" d="M418.57,440.1c0,1.53-1.24,2.77-2.77,2.77s-2.77-1.24-2.77-2.77,1.24-2.77,2.77-2.77,2.77,1.24,2.77,2.77Z"/>
                <path class="cls-9" d="M474.31,409.05c0,1.53-1.24,2.77-2.77,2.77s-2.77-1.24-2.77-2.77,1.24-2.77,2.77-2.77,2.77,1.24,2.77,2.77Z"/>
                <path class="cls-9" d="M376.56,416.25c0,1.53-1.24,2.77-2.77,2.77s-2.77-1.24-2.77-2.77,1.24-2.77,2.77-2.77,2.77,1.24,2.77,2.77Z"/>
                <path class="cls-9" d="M359.7,415.94c0,1.53-1.24,2.77-2.77,2.77s-2.77-1.24-2.77-2.77,1.24-2.77,2.77-2.77,2.77,1.24,2.77,2.77Z"/>
                <path class="cls-9" d="M296.49,405.5c0,2.77-2.24,5.01-5.01,5.01s-5.01-2.24-5.01-5.01,2.24-5.01,5.01-5.01,5.01,2.24,5.01,5.01Z"/>
                <path class="cls-9" d="M308.6,513.64c0,2.77-2.24,5.01-5.01,5.01s-5.01-2.24-5.01-5.01,2.24-5.01,5.01-5.01,5.01,2.24,5.01,5.01Z"/>
                <path class="cls-9" d="M347.85,543.29c0,2.77-2.24,5.01-5.01,5.01s-5.01-2.24-5.01-5.01,2.24-5.01,5.01-5.01,5.01,2.24,5.01,5.01Z"/>
                <circle class="cls-9" cx="331.57" cy="521.99" r="5.01"/>
                <path class="cls-9" d="M383.76,502.37c0,2.77-2.24,5.01-5.01,5.01s-5.01-2.24-5.01-5.01,2.24-5.01,5.01-5.01,5.01,2.24,5.01,5.01Z"/>
                <path class="cls-9" d="M416.74,520.32c0,2.77-2.24,5.01-5.01,5.01s-5.01-2.24-5.01-5.01,2.24-5.01,5.01-5.01,5.01,2.24,5.01,5.01Z"/>
                <circle class="cls-9" cx="398.37" cy="511.14" r="5.01"/>
                <path class="cls-9" d="M442.63,504.87c0,2.77-2.24,5.01-5.01,5.01s-5.01-2.24-5.01-5.01,2.24-5.01,5.01-5.01,5.01,2.24,5.01,5.01Z"/>
                <path class="cls-9" d="M315.28,480.24c0,2.77-2.24,5.01-5.01,5.01s-5.01-2.24-5.01-5.01,2.24-5.01,5.01-5.01,5.01,2.24,5.01,5.01Z"/>
                <path class="cls-9" d="M337.83,482.33c0,2.77-2.24,5.01-5.01,5.01s-5.01-2.24-5.01-5.01,2.24-5.01,5.01-5.01,5.01,2.24,5.01,5.01Z"/>
                <path class="cls-9" d="M323.63,494.02c0,2.77-2.24,5.01-5.01,5.01s-5.01-2.24-5.01-5.01,2.24-5.01,5.01-5.01,5.01,2.24,5.01,5.01Z"/>
                <path class="cls-9" d="M316.54,442.24c0,2.77-2.24,5.01-5.01,5.01s-5.01-2.24-5.01-5.01,2.24-5.01,5.01-5.01,5.01,2.24,5.01,5.01Z"/>
                <path class="cls-9" d="M270.19,382.95c0,2.77-2.24,5.01-5.01,5.01s-5.01-2.24-5.01-5.01,2.24-5.01,5.01-5.01,5.01,2.24,5.01,5.01Z"/>
                <circle class="cls-9" cx="239.29" cy="332.01" r="5.01"/>
                <path class="cls-9" d="M285.22,374.19c0,2.77-2.24,5.01-5.01,5.01s-5.01-2.24-5.01-5.01,2.24-5.01,5.01-5.01,5.01,2.24,5.01,5.01Z"/>
                <path class="cls-9" d="M310.69,345.79c0,2.77-2.24,5.01-5.01,5.01s-5.01-2.24-5.01-5.01,2.24-5.01,5.01-5.01,5.01,2.24,5.01,5.01Z"/>
                <circle class="cls-9" cx="320.29" cy="354.98" r="5.01"/>
                <circle class="cls-9" cx="286.06" cy="269.8" r="5.01"/>
                <path class="cls-9" d="M278.12,418.44c0,2.77-2.24,5.01-5.01,5.01s-5.01-2.24-5.01-5.01,2.24-5.01,5.01-5.01,5.01,2.24,5.01,5.01Z"/>
                <path class="cls-9" d="M238.46,427.21c0,2.77-2.24,5.01-5.01,5.01s-5.01-2.24-5.01-5.01,2.24-5.01,5.01-5.01,5.01,2.24,5.01,5.01Z"/>
                <path class="cls-9" d="M255.58,407.17c0,2.77-2.24,5.01-5.01,5.01s-5.01-2.24-5.01-5.01,2.24-5.01,5.01-5.01,5.01,2.24,5.01,5.01Z"/>
                <path class="cls-9" d="M319.46,409.26c0,2.77-2.24,5.01-5.01,5.01s-5.01-2.24-5.01-5.01,2.24-5.01,5.01-5.01,5.01,2.24,5.01,5.01Z"/>
                <path class="cls-9" d="M339.5,352.89c0,2.77-2.24,5.01-5.01,5.01s-5.01-2.24-5.01-5.01,2.24-5.01,5.01-5.01,5.01,2.24,5.01,5.01Z"/>
                <path class="cls-9" d="M338.25,383.79c0,2.77-2.24,5.01-5.01,5.01s-5.01-2.24-5.01-5.01,2.24-5.01,5.01-5.01,5.01,2.24,5.01,5.01Z"/>
                <path class="cls-9" d="M364.13,482.33c0,2.77-2.24,5.01-5.01,5.01s-5.01-2.24-5.01-5.01,2.24-5.01,5.01-5.01,5.01,2.24,5.01,5.01Z"/>
                <path class="cls-9" d="M357.87,442.24c0,2.77-2.24,5.01-5.01,5.01s-5.01-2.24-5.01-5.01,2.24-5.01,5.01-5.01,5.01,2.24,5.01,5.01Z"/>
                <path class="cls-9" d="M354.95,397.98c0,2.77-2.24,5.01-5.01,5.01s-5.01-2.24-5.01-5.01,2.24-5.01,5.01-5.01,5.01,2.24,5.01,5.01Z"/>
                <path class="cls-9" d="M367.89,466.04c0,2.77-2.24,5.01-5.01,5.01s-5.01-2.24-5.01-5.01,2.24-5.01,5.01-5.01,5.01,2.24,5.01,5.01Z"/>
                <path class="cls-9" d="M393.36,449.76c0,2.77-2.24,5.01-5.01,5.01s-5.01-2.24-5.01-5.01,2.24-5.01,5.01-5.01,5.01,2.24,5.01,5.01Z"/>
                <path class="cls-9" d="M422.17,454.35c0,2.77-2.24,5.01-5.01,5.01s-5.01-2.24-5.01-5.01,2.24-5.01,5.01-5.01,5.01,2.24,5.01,5.01Z"/>
                <path class="cls-9" d="M405.05,439.32c0,2.77-2.24,5.01-5.01,5.01s-5.01-2.24-5.01-5.01,2.24-5.01,5.01-5.01,5.01,2.24,5.01,5.01Z"/>
                <path class="cls-9" d="M400.88,417.19c0,2.77-2.24,5.01-5.01,5.01s-5.01-2.24-5.01-5.01,2.24-5.01,5.01-5.01,5.01,2.24,5.01,5.01Z"/>
                <path class="cls-9" d="M370.81,453.52c0,2.77-2.24,5.01-5.01,5.01s-5.01-2.24-5.01-5.01,2.24-5.01,5.01-5.01,5.01,2.24,5.01,5.01Z"/>
                <path class="cls-9" d="M369.56,428.05c0,2.77-2.24,5.01-5.01,5.01s-5.01-2.24-5.01-5.01,2.24-5.01,5.01-5.01,5.01,2.24,5.01,5.01Z"/>
                <path class="cls-9" d="M376.66,372.93c0,2.77-2.24,5.01-5.01,5.01s-5.01-2.24-5.01-5.01,2.24-5.01,5.01-5.01,5.01,2.24,5.01,5.01Z"/>
                <path class="cls-9" d="M373.74,402.16c0,2.77-2.24,5.01-5.01,5.01s-5.01-2.24-5.01-5.01,2.24-5.01,5.01-5.01,5.01,2.24,5.01,5.01Z"/>
                <circle class="cls-9" cx="386.26" cy="488.17" r="5.01"/>
                <path class="cls-9" d="M404.22,494.43c0,2.77-2.24,5.01-5.01,5.01s-5.01-2.24-5.01-5.01,2.24-5.01,5.01-5.01,5.01,2.24,5.01,5.01Z"/>
                <path class="cls-9" d="M423.01,474.39c0,2.77-2.24,5.01-5.01,5.01s-5.01-2.24-5.01-5.01,2.24-5.01,5.01-5.01,5.01,2.24,5.01,5.01Z"/>
                <path class="cls-9" d="M450.56,438.9c0,2.77-2.24,5.01-5.01,5.01s-5.01-2.24-5.01-5.01,2.24-5.01,5.01-5.01,5.01,2.24,5.01,5.01Z"/>
                <path class="cls-9" d="M414.55,396.31c0,2.77-2.24,5.01-5.01,5.01s-5.01-2.24-5.01-5.01,2.24-5.01,5.01-5.01,5.01,2.24,5.01,5.01Z"/>
                <path class="cls-9" d="M405.16,383.16c0,2.77-2.24,5.01-5.01,5.01s-5.01-2.24-5.01-5.01,2.24-5.01,5.01-5.01,5.01,2.24,5.01,5.01Z"/>
                <path class="cls-9" d="M426.76,418.76c0,2.77-2.24,5.01-5.01,5.01s-5.01-2.24-5.01-5.01,2.24-5.01,5.01-5.01,5.01,2.24,5.01,5.01Z"/>
                <path class="cls-9" d="M435.84,390.57c0,2.77-2.24,5.01-5.01,5.01s-5.01-2.24-5.01-5.01,2.24-5.01,5.01-5.01,5.01,2.24,5.01,5.01Z"/>
                <circle class="cls-9" cx="394.82" cy="363.64" r="5.01"/>
                <path class="cls-9" d="M379.17,326.06c0,2.77-2.24,5.01-5.01,5.01s-5.01-2.24-5.01-5.01,2.24-5.01,5.01-5.01,5.01,2.24,5.01,5.01Z"/>
                <path class="cls-9" d="M363.82,334.83c0,2.77-2.24,5.01-5.01,5.01s-5.01-2.24-5.01-5.01,2.24-5.01,5.01-5.01,5.01,2.24,5.01,5.01Z"/>
                <path class="cls-9" d="M379.17,348.61c0,2.77-2.24,5.01-5.01,5.01s-5.01-2.24-5.01-5.01,2.24-5.01,5.01-5.01,5.01,2.24,5.01,5.01Z"/>
                <path class="cls-9" d="M454.63,415.42c0,2.77-2.24,5.01-5.01,5.01s-5.01-2.24-5.01-5.01,2.24-5.01,5.01-5.01,5.01,2.24,5.01,5.01Z"/>
                <path class="cls-9" d="M502.55,447.04c0,2.77-2.24,5.01-5.01,5.01s-5.01-2.24-5.01-5.01,2.24-5.01,5.01-5.01,5.01,2.24,5.01,5.01Z"/>
                <path class="cls-9" d="M473.74,431.91c0,2.77-2.24,5.01-5.01,5.01s-5.01-2.24-5.01-5.01,2.24-5.01,5.01-5.01,5.01,2.24,5.01,5.01Z"/>
                <path class="cls-9" d="M545.45,410.3c0,2.77-2.24,5.01-5.01,5.01s-5.01-2.24-5.01-5.01,2.24-5.01,5.01-5.01,5.01,2.24,5.01,5.01Z"/>
                <path class="cls-9" d="M289.6,479.82c0,2.77-2.24,5.01-5.01,5.01s-5.01-2.24-5.01-5.01,2.24-5.01,5.01-5.01,5.01,2.24,5.01,5.01Z"/>
                <path class="cls-9" d="M542.94,442.87c0,2.77-2.24,5.01-5.01,5.01s-5.01-2.24-5.01-5.01,2.24-5.01,5.01-5.01,5.01,2.24,5.01,5.01Z"/>
                <circle class="cls-9" cx="564.86" cy="375.54" r="5.01"/>
                <path class="cls-9" d="M556.72,394.64c0,2.77-2.24,5.01-5.01,5.01s-5.01-2.24-5.01-5.01,2.24-5.01,5.01-5.01,5.01,2.24,5.01,5.01Z"/>
                <path class="cls-9" d="M545.45,344.23c0,2.77-2.24,5.01-5.01,5.01s-5.01-2.24-5.01-5.01,2.24-5.01,5.01-5.01,5.01,2.24,5.01,5.01Z"/>
                <circle class="cls-9" cx="507.24" cy="289.11" r="5.01"/>
                <path class="cls-9" d="M482.5,270.01c0,2.77-2.24,5.01-5.01,5.01s-5.01-2.24-5.01-5.01,2.24-5.01,5.01-5.01,5.01,2.24,5.01,5.01Z"/>
                <path class="cls-9" d="M471.86,258.42c0,2.77-2.24,5.01-5.01,5.01s-5.01-2.24-5.01-5.01,2.24-5.01,5.01-5.01,5.01,2.24,5.01,5.01Z"/>
                <path class="cls-9" d="M476.87,282.85c0,2.77-2.24,5.01-5.01,5.01s-5.01-2.24-5.01-5.01,2.24-5.01,5.01-5.01,5.01,2.24,5.01,5.01Z"/>
                <path class="cls-9" d="M489.08,234c0,2.77-2.24,5.01-5.01,5.01s-5.01-2.24-5.01-5.01,2.24-5.01,5.01-5.01,5.01,2.24,5.01,5.01Z"/>
                <path class="cls-9" d="M525.72,313.23c0,2.77-2.24,5.01-5.01,5.01s-5.01-2.24-5.01-5.01,2.24-5.01,5.01-5.01,5.01,2.24,5.01,5.01Z"/>
                <path class="cls-9" d="M529.79,285.67c0,2.77-2.24,5.01-5.01,5.01s-5.01-2.24-5.01-5.01,2.24-5.01,5.01-5.01,5.01,2.24,5.01,5.01Z"/>
                <path class="cls-9" d="M522.27,372.41c0,2.77-2.24,5.01-5.01,5.01s-5.01-2.24-5.01-5.01,2.24-5.01,5.01-5.01,5.01,2.24,5.01,5.01Z"/>
                <path class="cls-9" d="M497.85,420.64c0,2.77-2.24,5.01-5.01,5.01s-5.01-2.24-5.01-5.01,2.24-5.01,5.01-5.01,5.01,2.24,5.01,5.01Z"/>
                <path class="cls-9" d="M487.83,395.9c0,2.77-2.24,5.01-5.01,5.01s-5.01-2.24-5.01-5.01,2.24-5.01,5.01-5.01,5.01,2.24,5.01,5.01Z"/>
                <path class="cls-9" d="M502.86,374.6c0,2.77-2.24,5.01-5.01,5.01s-5.01-2.24-5.01-5.01,2.24-5.01,5.01-5.01,5.01,2.24,5.01,5.01Z"/>
                <path class="cls-9" d="M501.29,406.23c0,2.77-2.24,5.01-5.01,5.01s-5.01-2.24-5.01-5.01,2.24-5.01,5.01-5.01,5.01,2.24,5.01,5.01Z"/>
                <path class="cls-9" d="M460.58,372.72c0,2.77-2.24,5.01-5.01,5.01s-5.01-2.24-5.01-5.01,2.24-5.01,5.01-5.01,5.01,2.24,5.01,5.01Z"/>
                <path class="cls-9" d="M447.43,349.86c0,2.77-2.24,5.01-5.01,5.01s-5.01-2.24-5.01-5.01,2.24-5.01,5.01-5.01,5.01,2.24,5.01,5.01Z"/>
                <path class="cls-9" d="M395.45,333.58c0,2.77-2.24,5.01-5.01,5.01s-5.01-2.24-5.01-5.01,2.24-5.01,5.01-5.01,5.01,2.24,5.01,5.01Z"/>
                <circle class="cls-9" cx="414.55" cy="301.33" r="5.01"/>
                <path class="cls-9" d="M407.97,319.49c0,2.77-2.24,5.01-5.01,5.01s-5.01-2.24-5.01-5.01,2.24-5.01,5.01-5.01,5.01,2.24,5.01,5.01Z"/>
                <path class="cls-9" d="M381.36,265c0,2.77-2.24,5.01-5.01,5.01s-5.01-2.24-5.01-5.01,2.24-5.01,5.01-5.01,5.01,2.24,5.01,5.01Z"/>
                <path class="cls-9" d="M393.26,222.1c0,2.77-2.24,5.01-5.01,5.01s-5.01-2.24-5.01-5.01,2.24-5.01,5.01-5.01,5.01,2.24,5.01,5.01Z"/>
                <circle class="cls-9" cx="382.3" cy="235.25" r="5.01"/>
                <path class="cls-9" d="M407.97,218.65c0,2.77-2.24,5.01-5.01,5.01s-5.01-2.24-5.01-5.01,2.24-5.01,5.01-5.01,5.01,2.24,5.01,5.01Z"/>
                <path class="cls-9" d="M408.29,239.95c0,2.77-2.24,5.01-5.01,5.01s-5.01-2.24-5.01-5.01,2.24-5.01,5.01-5.01,5.01,2.24,5.01,5.01Z"/>
                <circle class="cls-9" cx="430.21" cy="215.52" r="5.01"/>
                <path class="cls-9" d="M435.13,236.41c0,2.77-2.24,5.01-5.01,5.01s-5.01-2.24-5.01-5.01,2.24-5.01,5.01-5.01,5.01,2.24,5.01,5.01Z"/>
                <circle class="cls-9" cx="451.73" cy="250.51" r="5.01"/>
                <path class="cls-9" d="M462.06,291.21c0,2.77-2.24,5.01-5.01,5.01s-5.01-2.24-5.01-5.01,2.24-5.01,5.01-5.01,5.01,2.24,5.01,5.01Z"/>
                <path class="cls-9" d="M497.22,326.38c0,2.77-2.24,5.01-5.01,5.01s-5.01-2.24-5.01-5.01,2.24-5.01,5.01-5.01,5.01,2.24,5.01,5.01Z"/>
                <path class="cls-9" d="M503.71,314.07c0,2.77-2.24,5.01-5.01,5.01s-5.01-2.24-5.01-5.01,2.24-5.01,5.01-5.01,5.01,2.24,5.01,5.01Z"/>
                <path class="cls-9" d="M496.51,345.7c0,2.77-2.24,5.01-5.01,5.01s-5.01-2.24-5.01-5.01,2.24-5.01,5.01-5.01,5.01,2.24,5.01,5.01Z"/>
                <path class="cls-9" d="M490.56,291.84c0,2.77-2.24,5.01-5.01,5.01s-5.01-2.24-5.01-5.01,2.24-5.01,5.01-5.01,5.01,2.24,5.01,5.01Z"/>
                <path class="cls-9" d="M505.9,251.13c0,2.77-2.24,5.01-5.01,5.01s-5.01-2.24-5.01-5.01,2.24-5.01,5.01-5.01,5.01,2.24,5.01,5.01Z"/>
                <path class="cls-9" d="M465.82,317.52c0,2.77-2.24,5.01-5.01,5.01s-5.01-2.24-5.01-5.01,2.24-5.01,5.01-5.01,5.01,2.24,5.01,5.01Z"/>
                <circle class="cls-9" cx="441.48" cy="274.71" r="5.01"/>
                <path class="cls-9" d="M473.74,306.34c0,2.77-2.24,5.01-5.01,5.01s-5.01-2.24-5.01-5.01,2.24-5.01,5.01-5.01,5.01,2.24,5.01,5.01Z"/>
                <path class="cls-9" d="M455.48,234.53c0,2.77-2.24,5.01-5.01,5.01s-5.01-2.24-5.01-5.01,2.24-5.01,5.01-5.01,5.01,2.24,5.01,5.01Z"/>
                <path class="cls-9" d="M447.12,259.68c0,2.77-2.24,5.01-5.01,5.01s-5.01-2.24-5.01-5.01,2.24-5.01,5.01-5.01,5.01,2.24,5.01,5.01Z"/>
                <path class="cls-9" d="M460.27,276.9c0,2.77-2.24,5.01-5.01,5.01s-5.01-2.24-5.01-5.01,2.24-5.01,5.01-5.01,5.01,2.24,5.01,5.01Z"/>
                <path class="cls-9" d="M347.54,309.47c0,2.77-2.24,5.01-5.01,5.01s-5.01-2.24-5.01-5.01,2.24-5.01,5.01-5.01,5.01,2.24,5.01,5.01Z"/>
                <path class="cls-9" d="M348.48,236.82c0,2.77-2.24,5.01-5.01,5.01s-5.01-2.24-5.01-5.01,2.24-5.01,5.01-5.01,5.01,2.24,5.01,5.01Z"/>
                <path class="cls-9" d="M370.4,252.47c0,2.77-2.24,5.01-5.01,5.01s-5.01-2.24-5.01-5.01,2.24-5.01,5.01-5.01,5.01,2.24,5.01,5.01Z"/>
                <path class="cls-9" d="M318.73,238.7c0,2.77-2.24,5.01-5.01,5.01s-5.01-2.24-5.01-5.01,2.24-5.01,5.01-5.01,5.01,2.24,5.01,5.01Z"/>
                <circle class="cls-9" cx="355.68" cy="298.19" r="5.01"/>
                <path class="cls-9" d="M398.58,295.38c0,2.77-2.24,5.01-5.01,5.01s-5.01-2.24-5.01-5.01,2.24-5.01,5.01-5.01,5.01,2.24,5.01,5.01Z"/>
                <path class="cls-9" d="M347.85,252.16c0,2.77-2.24,5.01-5.01,5.01s-5.01-2.24-5.01-5.01,2.24-5.01,5.01-5.01,5.01,2.24,5.01,5.01Z"/>
                <path class="cls-9" d="M377.91,295.69c0,2.77-2.24,5.01-5.01,5.01s-5.01-2.24-5.01-5.01,2.24-5.01,5.01-5.01,5.01,2.24,5.01,5.01Z"/>
                <path class="cls-9" d="M430.83,330.45c0,2.77-2.24,5.01-5.01,5.01s-5.01-2.24-5.01-5.01,2.24-5.01,5.01-5.01,5.01,2.24,5.01,5.01Z"/>
                <path class="cls-9" d="M456.83,398.19c0,2.77-2.24,5.01-5.01,5.01s-5.01-2.24-5.01-5.01,2.24-5.01,5.01-5.01,5.01,2.24,5.01,5.01Z"/>
                <path class="cls-9" d="M471.54,388.07c0,2.77-2.24,5.01-5.01,5.01s-5.01-2.24-5.01-5.01,2.24-5.01,5.01-5.01,5.01,2.24,5.01,5.01Z"/>
                <path class="cls-9" d="M472.17,356.44c0,2.77-2.24,5.01-5.01,5.01s-5.01-2.24-5.01-5.01,2.24-5.01,5.01-5.01,5.01,2.24,5.01,5.01Z"/>
                <path class="cls-9" d="M455.57,332.01c0,2.77-2.24,5.01-5.01,5.01s-5.01-2.24-5.01-5.01,2.24-5.01,5.01-5.01,5.01,2.24,5.01,5.01Z"/>
                <path class="cls-9" d="M479.69,376.48c0,2.77-2.24,5.01-5.01,5.01s-5.01-2.24-5.01-5.01,2.24-5.01,5.01-5.01,5.01,2.24,5.01,5.01Z"/>
                <path class="cls-9" d="M492.21,361.45c0,2.77-2.24,5.01-5.01,5.01s-5.01-2.24-5.01-5.01,2.24-5.01,5.01-5.01,5.01,2.24,5.01,5.01Z"/>
                <path class="cls-9" d="M443.05,371.47c0,2.77-2.24,5.01-5.01,5.01s-5.01-2.24-5.01-5.01,2.24-5.01,5.01-5.01,5.01,2.24,5.01,5.01Z"/>
                <path class="cls-9" d="M420.5,490.68c0,2.77-2.24,5.01-5.01,5.01s-5.01-2.24-5.01-5.01,2.24-5.01,5.01-5.01,5.01,2.24,5.01,5.01Z"/>
                <circle class="cls-9" cx="448.06" cy="471.89" r="5.01"/>
                <path class="cls-9" d="M484.38,459.36c0,2.77-2.24,5.01-5.01,5.01s-5.01-2.24-5.01-5.01,2.24-5.01,5.01-5.01,5.01,2.24,5.01,5.01Z"/>
                <path class="cls-9" d="M514.13,412.18c0,2.77-2.24,5.01-5.01,5.01s-5.01-2.24-5.01-5.01,2.24-5.01,5.01-5.01,5.01,2.24,5.01,5.01Z"/>
                <circle class="cls-9" cx="538.87" cy="375.86" r="5.01"/>
                <circle class="cls-9" cx="534.17" cy="355.81" r="5.01"/>
                <path class="cls-9" d="M540.44,312.29c0,2.77-2.24,5.01-5.01,5.01s-5.01-2.24-5.01-5.01,2.24-5.01,5.01-5.01,5.01,2.24,5.01,5.01Z"/>
                <path class="cls-9" d="M526.97,396.52c0,2.77-2.24,5.01-5.01,5.01s-5.01-2.24-5.01-5.01,2.24-5.01,5.01-5.01,5.01,2.24,5.01,5.01Z"/>
                <path class="cls-9" d="M499.73,477.84c0,2.77-2.24,5.01-5.01,5.01s-5.01-2.24-5.01-5.01,2.24-5.01,5.01-5.01,5.01,2.24,5.01,5.01Z"/>
                <path class="cls-9" d="M460.58,495.69c0,2.77-2.24,5.01-5.01,5.01s-5.01-2.24-5.01-5.01,2.24-5.01,5.01-5.01,5.01,2.24,5.01,5.01Z"/>
                <path class="cls-9" d="M471.86,475.65c0,2.77-2.24,5.01-5.01,5.01s-5.01-2.24-5.01-5.01,2.24-5.01,5.01-5.01,5.01,2.24,5.01,5.01Z"/>
                <path class="cls-9" d="M312.78,316.98c0,2.77-2.24,5.01-5.01,5.01s-5.01-2.24-5.01-5.01,2.24-5.01,5.01-5.01,5.01,2.24,5.01,5.01Z"/>
                <path class="cls-9" d="M358.71,279.41c0,2.77-2.24,5.01-5.01,5.01s-5.01-2.24-5.01-5.01,2.24-5.01,5.01-5.01,5.01,2.24,5.01,5.01Z"/>
                <path class="cls-9" d="M269.77,343.71c0,2.77-2.24,5.01-5.01,5.01s-5.01-2.24-5.01-5.01,2.24-5.01,5.01-5.01,5.01,2.24,5.01,5.01Z"/>
                <path class="cls-9" d="M321.96,376.69c0,2.77-2.24,5.01-5.01,5.01s-5.01-2.24-5.01-5.01,2.24-5.01,5.01-5.01,5.01,2.24,5.01,5.01Z"/>
                <circle class="cls-9" cx="325.3" cy="398.4" r="5.01"/>
                <path class="cls-9" d="M339.5,331.6c0,2.77-2.24,5.01-5.01,5.01s-5.01-2.24-5.01-5.01,2.24-5.01,5.01-5.01,5.01,2.24,5.01,5.01Z"/>
                <path class="cls-9" d="M303.17,291.93c0,2.77-2.24,5.01-5.01,5.01s-5.01-2.24-5.01-5.01,2.24-5.01,5.01-5.01,5.01,2.24,5.01,5.01Z"/>
                <path class="cls-9" d="M255.99,327c0,2.77-2.24,5.01-5.01,5.01s-5.01-2.24-5.01-5.01,2.24-5.01,5.01-5.01,5.01,2.24,5.01,5.01Z"/>
                <path class="cls-9" d="M328.64,422.62c0,2.77-2.24,5.01-5.01,5.01s-5.01-2.24-5.01-5.01,2.24-5.01,5.01-5.01,5.01,2.24,5.01,5.01Z"/>
                <path class="cls-9" d="M345.76,505.29c0,2.77-2.24,5.01-5.01,5.01s-5.01-2.24-5.01-5.01,2.24-5.01,5.01-5.01,5.01,2.24,5.01,5.01Z"/>
                <path class="cls-9" d="M302.34,494.02c0,2.77-2.24,5.01-5.01,5.01s-5.01-2.24-5.01-5.01,2.24-5.01,5.01-5.01,5.01,2.24,5.01,5.01Z"/>
                <path class="cls-9" d="M306.93,539.53c0,2.77-2.24,5.01-5.01,5.01s-5.01-2.24-5.01-5.01,2.24-5.01,5.01-5.01,5.01,2.24,5.01,5.01Z"/>
                <path class="cls-9" d="M334.91,549.97c0,2.77-2.24,5.01-5.01,5.01s-5.01-2.24-5.01-5.01,2.24-5.01,5.01-5.01,5.01,2.24,5.01,5.01Z"/>
                <path class="cls-9" d="M377.49,536.61c0,2.77-2.24,5.01-5.01,5.01s-5.01-2.24-5.01-5.01,2.24-5.01,5.01-5.01,5.01,2.24,5.01,5.01Z"/>
                <path class="cls-9" d="M280.21,525.33c0,2.77-2.24,5.01-5.01,5.01s-5.01-2.24-5.01-5.01,2.24-5.01,5.01-5.01,5.01,2.24,5.01,5.01Z"/>
                <circle class="cls-9" cx="289.81" cy="531.18" r="5.01"/>
                <path class="cls-9" d="M198.79,428.46c0,2.77-2.24,5.01-5.01,5.01s-5.01-2.24-5.01-5.01,2.24-5.01,5.01-5.01,5.01,2.24,5.01,5.01Z"/>
                <path class="cls-9" d="M211.73,457.69c0,2.77-2.24,5.01-5.01,5.01s-5.01-2.24-5.01-5.01,2.24-5.01,5.01-5.01,5.01,2.24,5.01,5.01Z"/>
                <circle class="cls-9" cx="215.91" cy="399.24" r="5.01"/>
                <path class="cls-9" d="M214.24,439.32c0,2.77-2.24,5.01-5.01,5.01s-5.01-2.24-5.01-5.01,2.24-5.01,5.01-5.01,5.01,2.24,5.01,5.01Z"/>
              </g>
              <g class="cls-16">
                <path class="cls-9" d="M403.01,179.94c1.08.15,2.16.27,3.23.44,60.47,45.53,99.64,117.89,99.64,199.24s-39.17,153.71-99.64,199.24c-1.07.17-2.16.29-3.24.44,97.98-13.68,173.65-97.99,173.65-199.68s-75.67-185.99-173.64-199.68Z"/>
              </g>
            </g>
          </g>
          <path class="cls-7" d="M611.52,573.66c-41.2,49.04-94.41,82.08-151.7,98.41-32,9.13-65.28,13.05-98.46,11.64,24.31-1.05,48.48-4.94,71.97-11.64,57.29-16.33,110.5-49.37,151.7-98.41,109.9-130.8,92.95-325.95-37.83-435.82-54.32-45.64-119.73-69.39-185.52-72.2,74.51-3.18,150.4,20.43,212.01,72.2,130.78,109.87,147.73,305.02,37.83,435.82Z"/>
        </g>
      </g>
    </g>
  </g>
</svg>