<?xml version="1.0" encoding="UTF-8"?>
<svg id="Layer_2" data-name="Layer 2" xmlns="http://www.w3.org/2000/svg" viewBox="0 0 354.03 275.14">
  <defs>
    <style>
      .cls-1 {
        fill: #c0cf9c;
      }

      .cls-2 {
        fill: #417839;
      }

      .cls-3 {
        fill: #81c13e;
      }
    </style>
  </defs>
  <g id="Layer_1-2" data-name="Layer 1">
    <g>
      <path class="cls-1" d="M354.03,135.76c0,8.73-7.07,15.81-15.8,15.81h-63.79c-7.02,69.4-65.61,123.57-136.87,123.57C61.6,275.14,0,213.55,0,137.57S61.6,0,137.57,0c70.01,0,127.81,52.3,136.45,119.96h64.21c8.73,0,15.8,7.08,15.8,15.8Z"/>
      <path class="cls-2" d="M229.76,215.96c13.05-19.31,20.67-42.59,20.67-67.66,0-66.84-54.19-121.02-121.03-121.02-36.93,0-70,16.54-92.18,42.63,21.75-32.19,58.58-53.36,100.35-53.36,66.84,0,121.03,54.19,121.03,121.02,0,29.9-10.85,57.27-28.84,78.39Z"/>
      <path class="cls-3" d="M250.43,148.3c0,25.07-7.62,48.35-20.67,67.66-.02.02-.03.04-.04.06-22.19,26.05-55.24,42.58-92.15,42.58-66.83,0-121.02-54.19-121.02-121.03,0-25.06,7.62-48.35,20.67-67.66,22.18-26.09,55.25-42.63,92.18-42.63,66.84,0,121.03,54.18,121.03,121.02Z"/>
    </g>
  </g>
</svg>