<?xml version="1.0" encoding="UTF-8"?>
<svg id="Layer_2" xmlns="http://www.w3.org/2000/svg" version="1.1" viewBox="0 0 36.6 61.1">
  <!-- Generator: Adobe Illustrator 29.7.1, SVG Export Plug-In . SVG Version: 2.1.1 Build 8)  -->
  <defs>
    <style>
      .st0 {
        fill: #1b5e20;
      }
    </style>
  </defs>
  <g id="Layer_1-2">
    <path class="st0" d="M34.9,29.5c-.4-.2-.8-.4-1.3-.5h-.2c-1.4-.4-2.8-1-4-1.8h0s0,0,0,0c0,0,0-.1,0-.2.3-1.7,1-3.4,1.8-5,.1-.2,0-.5-.1-.6h0s-.1-.1-.1-.1l.4-1.3h0s.1,0,.2,0c.1,0,.2-.2.3-.3l4.1-15.7c0-.2,0-.4-.2-.5C31.6.8,26.9-.4,22.1.1c-.2,0-.3.2-.4.3l-4.1,15.7c0,.1,0,.3.1.4,0,.1.2.1.3.1l-.3,1.3h-.3c-.2,0-.4.2-.4.5,0,2-.4,4-1.1,5.8l-7.1,9.5v.2h0c0,0,0,0,0,0v.2c-.1,0-.3.3-.3.3l-.5.6-.9,1.3c-.6.9-1.2,1.7-1.8,2.6-1.1,1.8-2.2,3.6-3.2,5.5-.5,1-.9,1.9-1.4,2.9-.2.5-.4,1-.6,1.5-.2.5-.3,1.1-.3,1.7s0,1.1.2,1.7c.2.5.4,1,.7,1.5.6.9,1.3,1.7,2.2,2.3-.7-.8-1.2-1.7-1.6-2.6-.2-.5-.3-.9-.4-1.4,0-.1,0-.2,0-.4v-.4h0c0-.2,0-.5,0-.7,0-.5,0-1,.2-1.4.1-.5.4-.9.5-1.4.4-1,.8-1.9,1.3-2.8.9-1.8,2-3.6,3.1-5.4.6-.9,1.1-1.8,1.7-2.6l.9-1.3.5-.6.2-.3v-.2c.1,0,.2,0,.2,0h0c0,0,0-.1.1-.2v.2c0,0,6.9-9.4,6.9-9.4h0c.6,0,1.3,0,2,0-1.6,2.4-3.2,4.8-4.7,7.3-.4.7-.8,1.4-1.2,2.1-.4.7-.8,1.4-1.1,2.1l-2.1,4.2h0c-.7,1.4-1.4,2.8-2,4.3-.6,1.5-1.1,3-1.5,4.5-.2.8-.4,1.5-.6,2.3-.2.8-.2,1.7,0,2.5.2.8.7,1.6,1.3,2.2.6.5,1.3,1,2.1,1.2-.7-.4-1.3-.9-1.7-1.5-.4-.6-.7-1.3-.8-2-.1-.7,0-1.5,0-2.2.2-.8.3-1.5.5-2.3h0c.4-1.5.9-3,1.5-4.4.6-1.5,1.2-2.9,1.9-4.3l2.1-4.2c.4-.7.8-1.4,1.1-2.1.4-.7.8-1.4,1.2-2,1.6-2.6,3.2-5.2,5-7.7.2,0,.5,0,.7,0l-1.5,3.6-.9,2.1-.9,2c-.6,1.4-1.2,2.8-1.7,4.2-.3.7-.5,1.4-.7,2.2-.1.4-.2.7-.3,1.1l-.3,1c-.9,2.9-1.6,5.8-2.4,8.7l-.5,2.2-.3,1.1c-.1.4-.2.8-.2,1.2,0,.8.1,1.6.4,2.3.3.7.7,1.4,1.2,1.9-.7-1.3-1-2.8-.8-4.2,0-.3.1-.7.2-1l.3-1.1.5-2.2c.7-2.9,1.5-5.8,2.4-8.6l.4-1.1c.1-.4.2-.7.3-1.1.2-.7.4-1.4.7-2.1.5-1.4,1.1-2.8,1.7-4.1l.9-2.1.9-2.1,1.6-3.8c.2,0,.5,0,.7.1l-3.9,16.7-2,8.6-1,4.3c-.2,1.5-.4,2.9-.6,4.4.5-1.4,1-2.8,1.4-4.2l1-4.3,2-8.6,3.8-16.7c.3,0,.7.2,1,.3l-.3,3.8c-.1,1.4-.2,2.8-.4,4.2-.1,1.4-.3,2.8-.4,4.2l-.5,4.1h0c0,0-.1.6-.1.6v.6c-.1,0-.3,1.2-.3,1.2-.1.8-.3,1.6-.5,2.3-.3,1.6-.6,3.1-1,4.7l-.5,2.3-.3,1.2h0c0,.4-.2.8-.3,1.1-.1.4-.3.7-.4,1-.2.3-.4.7-.6,1-.5.6-1,1.2-1.7,1.7.8-.3,1.5-.8,2.1-1.3.3-.3.6-.6.8-.9.3-.3.5-.7.6-1.1.1-.4.2-.8.3-1.2l.3-1.2.5-2.3c.4-1.6.7-3.1,1-4.7.2-.8.3-1.6.5-2.4l.2-1.2v-.6c.1,0,.1-.3.1-.3v-.2s0-.2,0-.2l.5-4.2c.2-1.4.3-2.8.4-4.2.1-1.4.3-2.8.4-4.2l.3-3.6c.3.1.5.2.8.3.4,3,.7,6,.9,9,0,.8,0,1.5.1,2.3,0,.8,0,1.5,0,2.3v4.7h0c0,3.1-.3,6.2-.9,9.2-.2.8-.4,1.5-.6,2.2-.2.7-.5,1.4-.9,1.9-.4.6-1,1.1-1.6,1.4-.7.3-1.4.5-2.2.6.8.1,1.6,0,2.4-.2.8-.3,1.5-.7,2.1-1.3.5-.7.9-1.4,1.1-2.2.2-.8.4-1.5.6-2.3.6-3.1,1-6.2.9-9.4v-4.7c0-.8,0-1.6,0-2.3s0-1.6-.1-2.3c-.2-2.9-.5-5.7-.9-8.5.7.3,1.3.7,2,1.2.5,3.6,1.1,7.2,1.8,10.8v-.2c0,0,0,.2,0,.3h0c0,.1,0,.7,0,.7v.8c.1,0,.4,1.5.4,1.5.1,1,.3,2.1.4,3.1.2,2.1.4,4.1.4,6.2,0,1,0,2.1,0,3.1h0c0,.5,0,1-.2,1.5-.1.5-.3.9-.5,1.3-.2.4-.5.8-.8,1.2-.3.4-.6.7-1,1.1-.8.7-1.7,1.2-2.6,1.7,1-.2,2-.6,3-1.2.5-.3.9-.6,1.3-1,.4-.4.7-.9,1-1.4.3-.5.5-1,.6-1.6.1-.5.2-1.1.2-1.6,0-1.1,0-2.1,0-3.2,0-2.1-.2-4.2-.4-6.3-.1-1-.2-2.1-.4-3.1l-.2-1.6v-.8c-.1,0-.2-.4-.2-.4v-.2s0,0,0,0c0,0,0,0,0,0v-.2c-.6-3.1-1.1-6.2-1.5-9.4h0c.3.6.7,1.2,1.2,1.7.3.3.6.5.9.8.3.2.6.5.8.9.4.8.4,1.8,0,3,0,.2,0,.5.3.6,0,0,0,0,.1,0,.2,0,.4-.1.4-.3.5-1.5.5-2.8,0-3.7h0c-.3-.4-.6-.8-1-1.1-.3-.2-.5-.5-.8-.7-.5-.5-.8-1-1.1-1.6,1,.5,2,.9,3.1,1.2h.2c.3,0,.7.2,1,.4.8.5,1.3,1.6,1.3,3.4h0c0,.2.2.4.5.4h0c.1,0,.2,0,.3-.1,0,0,.1-.2.1-.3,0-2-.7-3.4-1.7-4.1h0ZM19,16.6c4-.3,8,.8,11.4,3l-.3,1.2c-3.4-2.1-7.3-3.1-11.3-2.9l.3-1.3h0s0,0,0,0ZM19.1,14.1c0,0,.1,0,.2,0,.1,0,.3,0,.5,0,.1,0,.3,0,.5,0h.2s.3-.4.3-.4h0c0-.2-.1-.3-.2-.5-.1,0-.2,0-.3,0-.2,0-.4,0-.6,0-.1,0-.3,0-.4,0L22.5,1h0c4.3-.4,8.7.7,12.2,3.2l-.5,1.8c-.3-.1-.6-.2-1-.3-.2,0-.4,0-.7-.1h-.3c-.1.1-.2.3-.3.4.1.2.2.3.3.4h.3c.2,0,.4,0,.6,0,.3,0,.6.2.9.3l-.4,1.5h0c-.3-.1-.7-.2-1-.3-.2,0-.5,0-.7,0h-.3c-.1.1-.2.3-.3.5.1.2.2.3.3.4h.3c.2,0,.4,0,.6,0,.3,0,.7.2,1,.3l-2.5,9.8c-3.2-2.1-6.9-3.3-10.7-3.3-.5,0-1,0-1.5,0l.5-1.7h0ZM17.5,22.4h.5c.2,0,.5,0,.7,0,.2,0,.5,0,.7,0h.3c.1,0,.3-.2.4-.3,0-.2-.2-.4-.3-.5-.1,0-.3,0-.4,0-.3,0-.5,0-.7,0h0c-.3,0-.5,0-.8,0h-.4c.2-.9.3-1.8.3-2.6,4.1-.4,8.2.7,11.7,2.9l.4.3h0c-.7,1.4-1.2,2.9-1.6,4.4-3.3-2.3-7.4-3.3-11.4-2.7.1-.4.3-.9.4-1.3h0Z"/>
  </g>
</svg>