<svg id="prefix__Layer_2" data-name="Layer 2" xmlns="http://www.w3.org/2000/svg" viewBox="0 0 850.25 180.49"><defs><style>.prefix__cls-1{fill:#417839}.prefix__cls-2{fill:#d34d23}</style></defs><g id="prefix__Layer_1-2" data-name="Layer 1"><path class="prefix__cls-1" d="M132.77 100.6c0 11.22-2.05 20.62-6.15 28.22-4.1 7.6-9.68 13.34-16.74 17.22-7.06 3.88-15.07 5.82-24.02 5.82s-16.82-1.94-23.94-5.82c-7.12-3.88-12.72-9.62-16.82-17.22s-6.15-17.01-6.15-28.22 2.1-20.62 6.31-28.22c4.2-7.6 9.84-13.34 16.9-17.22 7.06-3.88 14.96-5.82 23.69-5.82s16.79 1.94 23.86 5.82c7.06 3.88 12.67 9.62 16.82 17.22s6.23 17.01 6.23 28.22zm-13.42 0c0-12.83-3.05-22.72-9.14-29.68-6.09-6.95-14.21-10.43-24.34-10.43s-18.09 3.48-24.18 10.43c-6.09 6.95-9.14 16.85-9.14 29.68s3.02 22.72 9.06 29.68c6.04 6.95 14.12 10.43 24.26 10.43s18.38-3.48 24.42-10.43c6.04-6.95 9.06-16.85 9.06-29.68zM204.46 142.97c-.22 2.38-.94 4.27-2.17 5.66-1.25 1.41-2.89 2.11-4.94 2.11-1.61 0-3.1-.44-4.44-1.3-1.35-.86-2.72-2-4.13-3.39l-32.66-32.82v36.21c-.55.22-1.36.45-2.42.72-1.08.27-2.27.41-3.57.41-2.27 0-3.99-.45-5.18-1.38-1.19-.91-1.77-2.39-1.77-4.44v-99.8c.53-.2 1.38-.45 2.5-.72 1.13-.27 2.35-.41 3.63-.41 2.27 0 3.97.45 5.1 1.38 1.14.92 1.7 2.39 1.7 4.44v58.28l35.41-34.35c2.6.11 4.61.74 6.07 1.86 1.45 1.14 2.17 2.63 2.17 4.46 0 1.5-.45 2.85-1.36 4.04-.92 1.19-2.25 2.49-3.97 3.88l-26 22.82 36.02 32.33zM230.88 51.43c0 2.27-.75 4.18-2.27 5.74-1.5 1.56-3.5 2.35-5.98 2.35s-4.38-.78-5.99-2.35c-1.61-1.56-2.42-3.47-2.42-5.74s.81-4.18 2.42-5.74c1.61-1.56 3.61-2.35 5.99-2.35s4.47.78 5.98 2.35c1.52 1.56 2.27 3.47 2.27 5.74zM229.1 80.21v69.23c-.53.22-1.35.45-2.42.72-1.08.27-2.27.41-3.55.41-2.27 0-4-.45-5.18-1.38-1.19-.91-1.78-2.39-1.78-4.44V75.36c.53-.22 1.38-.45 2.5-.72 1.14-.28 2.35-.41 3.64-.41 2.27 0 3.96.45 5.1 1.38 1.13.91 1.69 2.46 1.69 4.6zM310.08 111.18c1.06-1.02 1.61-2.72 1.61-5.08 0-6.48-1.44-12.22-4.29-17.22-2.86-5.02-6.79-8.93-11.81-11.73-5.01-2.8-10.81-4.21-17.38-4.21-5.18 0-9.98.89-14.41 2.67-4.41 1.77-8.21 4.33-11.4 7.68-3.18 3.35-5.65 7.41-7.43 12.2-1.78 4.8-2.67 10.28-2.67 16.42 0 8.63 1.64 15.92 4.94 21.91 3.28 5.99 7.98 10.48 14.06 13.5 6.1 3.02 13.3 4.54 21.59 4.54 4.76 0 9.04-.55 12.87-1.63 3.82-1.06 6.9-2.5 9.21-4.29 2.32-1.77 3.47-3.69 3.47-5.74 0-1.28-.34-2.44-1.05-3.47-.7-1.02-1.64-1.91-2.83-2.67-2.16 1.74-5.07 3.35-8.73 4.86-3.68 1.5-7.77 2.25-12.29 2.25-8.53 0-15.24-2.24-20.13-6.71-3.88-3.52-6.44-8.34-7.73-14.45l49.85-6.98c1.94-.2 3.46-.83 4.54-1.86zm-55.12-1.31c.2-8.27 2.38-14.67 6.52-19.22 4.36-4.79 9.89-7.2 16.57-7.2s11.54 1.92 15.2 5.74c3.66 3.83 5.71 8.71 6.15 14.64l-44.44 6.04z"/><path class="prefix__cls-1" d="M371.26 56.61c0 1.72-.44 3.14-1.3 4.29-.86 1.13-2.1 1.69-3.72 1.69h-26.69v86.86c-.53.22-1.38.45-2.5.72-1.13.27-2.3.41-3.47.41-2.38 0-4.16-.48-5.35-1.45-1.17-.97-1.77-2.47-1.77-4.52V62.58h-30.25c-.31-.53-.64-1.28-.97-2.25-.31-.97-.48-2-.48-3.08 0-1.83.44-3.25 1.3-4.29.86-1.02 2.1-1.53 3.72-1.53h70.03c.31.44.64 1.13.97 2.1.31.97.48 2 .48 3.08z"/><path class="prefix__cls-1" d="M425.97 112.4c0 7.98-1.51 14.94-4.53 20.86-3.02 5.93-7.28 10.51-12.78 13.75-5.5 3.24-11.97 4.85-19.41 4.85s-13.94-1.62-19.49-4.85c-5.55-3.23-9.84-7.82-12.86-13.75-3.02-5.93-4.53-12.88-4.53-20.86s1.54-15.07 4.61-20.94c3.07-5.87 7.38-10.43 12.94-13.67 5.55-3.23 11.99-4.85 19.33-4.85s13.75 1.62 19.25 4.85c5.5 3.24 9.78 7.79 12.86 13.67 3.07 5.88 4.61 12.86 4.61 20.94zm-36.72-28.79c-7.23 0-12.97 2.56-17.22 7.68-4.26 5.12-6.39 12.16-6.39 21.11s2.07 16.12 6.23 21.19c4.15 5.07 9.95 7.6 17.39 7.6s13.07-2.56 17.22-7.68c4.15-5.12 6.23-12.15 6.23-21.11s-2.08-15.98-6.23-21.11c-4.15-5.12-9.89-7.68-17.22-7.68zM528.04 110.43l.06.03v-.08l-.06.05zm-.32-2.14l.38.06v-.42l-.38.36zm.32 2.14l.06.03v-.08l-.06.05zm0 0l.06.03v-.08l-.06.05zm0 0l.06.03v-.08l-.06.05zm-.32-2.14l.38.06v-.42l-.38.36zM460.67 110.64l26-22.82c1.72-1.39 3.05-2.69 3.96-3.88a6.42 6.42 0 001.38-4.04c0-1.83-.72-3.32-2.17-4.46-1.47-1.13-3.49-1.75-6.07-1.86l-35.43 34.35v.42l-.38-.06.38-.36V49.65c0-2.05-.56-3.52-1.69-4.44-1.14-.92-2.83-1.38-5.1-1.38-1.3 0-2.5.14-3.63.41-1.14.27-1.97.52-2.52.72v99.8c0 2.05.59 3.54 1.78 4.44 1.19.92 2.91 1.38 5.18 1.38 1.3 0 2.47-.14 3.55-.41 1.08-.27 1.89-.5 2.42-.72v-36.23l32.68 32.83c1.41 1.39 2.77 2.53 4.13 3.39a8.11 8.11 0 004.44 1.3c2.05 0 3.69-.7 4.93-2.11 1.25-1.39 1.97-3.28 2.19-5.66l-36.02-32.33zm-12.34-.18l-.06-.03.06-.05v.08z"/><path class="prefix__cls-1" d="M523.16 133.11c-1.83-3.45-4.04-8.11-6.63-13.99-2.59-5.87-5.26-12.45-8.01-19.73-2.75-7.28-5.36-14.69-7.84-22.24.75-1.08 1.75-1.94 2.99-2.59 1.24-.65 2.56-.97 3.96-.97 1.83 0 3.34.48 4.53 1.46 1.19.97 2.16 2.59 2.91 4.85 3.24 9.06 6.63 18.06 10.19 27.01 3.56 8.95 7.49 18.22 11.81 27.82h.65c2.27-4.53 4.64-10.19 7.12-16.98 2.48-6.79 4.85-13.96 7.12-21.51 2.26-7.55 4.15-14.66 5.66-21.35.75-.32 1.59-.62 2.51-.89.91-.27 1.91-.4 2.99-.4 1.83 0 3.34.46 4.53 1.37 1.19.92 1.78 2.29 1.78 4.12 0 1.73-.49 4.61-1.46 8.65s-2.29 8.73-3.96 14.07-3.61 11-5.82 16.98a313.37 313.37 0 01-7.12 17.63c-2.53 5.77-5.09 10.97-7.68 15.61-4.96 9.16-9.49 16.2-13.59 21.11-4.1 4.9-7.87 7.36-11.32 7.36-2.48 0-4.39-.65-5.74-1.94-1.35-1.29-2.18-2.81-2.51-4.53 2.37-2.05 5.04-4.77 8.01-8.17 2.96-3.4 5.82-7.06 8.57-11 2.75-3.94 4.99-7.68 6.71-11.24-1.83-.54-3.53-1.51-5.1-2.91-1.56-1.4-3.31-3.93-5.26-7.6z"/><path class="prefix__cls-2" d="M647.11 112.4c0 7.98-1.5 14.94-4.52 20.87-3.02 5.93-7.29 10.51-12.78 13.75-5.51 3.22-11.97 4.85-19.41 4.85s-13.94-1.63-19.49-4.85c-5.55-3.24-9.84-7.82-12.86-13.75-3.02-5.93-4.52-12.89-4.52-20.87s1.53-15.06 4.6-20.94c3.08-5.88 7.4-10.43 12.95-13.67 5.54-3.24 11.98-4.85 19.32-4.85s13.75 1.61 19.26 4.85c5.49 3.24 9.78 7.79 12.86 13.67 3.07 5.88 4.6 12.86 4.6 20.94z"/><path class="prefix__cls-1" d="M703.55 56.61c0 1.72-.42 3.14-1.28 4.29-.86 1.13-2.11 1.69-3.72 1.69h-26.69v86.86c-.55.22-1.38.45-2.5.72-1.14.27-2.3.41-3.49.41-2.36 0-4.15-.48-5.33-1.45-1.19-.97-1.78-2.47-1.78-4.52V62.58h-30.24c-.33-.53-.66-1.28-.97-2.25-.33-.97-.49-2-.49-3.08 0-1.83.42-3.25 1.3-4.29.86-1.02 2.1-1.53 3.71-1.53h70.03c.33.44.66 1.13.97 2.1.33.97.49 2 .49 3.08zM772.78 111.18c1.08-1.02 1.61-2.72 1.61-5.08 0-6.48-1.42-12.22-4.29-17.22-2.85-5.02-6.79-8.93-11.79-11.73-5.02-2.8-10.82-4.21-17.39-4.21-5.18 0-9.98.89-14.39 2.67-4.43 1.77-8.23 4.33-11.4 7.68-3.19 3.35-5.66 7.41-7.45 12.2-1.78 4.8-2.66 10.28-2.66 16.42 0 8.63 1.64 15.92 4.93 21.91s7.98 10.48 14.08 13.5c6.09 3.02 13.28 4.54 21.59 4.54 4.74 0 9.03-.55 12.86-1.63 3.82-1.06 6.9-2.5 9.21-4.29 2.32-1.77 3.47-3.69 3.47-5.74 0-1.28-.34-2.44-1.05-3.47-.7-1.02-1.64-1.91-2.83-2.67-2.16 1.74-5.07 3.35-8.73 4.86-3.66 1.5-7.76 2.25-12.29 2.25-8.51 0-15.24-2.24-20.13-6.71-3.88-3.52-6.44-8.34-7.73-14.45l49.85-6.98c1.94-.2 3.46-.83 4.54-1.86zm-55.12-1.31c.2-8.27 2.39-14.67 6.52-19.22 4.36-4.79 9.89-7.2 16.58-7.2s11.53 1.92 15.2 5.74c3.66 3.83 5.71 8.71 6.13 14.64l-44.44 6.04zM819.68 72.94c9.38 0 16.82 2.1 22.32 6.31 5.5 4.21 8.25 10.84 8.25 19.89v38.33c0 2.37-.46 4.18-1.37 5.42-.92 1.24-2.29 2.4-4.12 3.48-2.59 1.4-6.04 2.7-10.35 3.88-4.31 1.19-9.17 1.78-14.56 1.78-10.14 0-17.98-2-23.53-5.98-5.55-3.99-8.33-9.76-8.33-17.31 0-7.01 2.34-12.37 7.03-16.09 4.69-3.72 11.19-5.96 19.49-6.71l22.97-2.26v-4.53c0-5.39-1.62-9.32-4.85-11.81-3.23-2.48-7.6-3.72-13.1-3.72-4.42 0-8.65.65-12.7 1.94-4.04 1.29-7.63 2.75-10.76 4.37-.86-.75-1.65-1.64-2.35-2.67-.7-1.02-1.05-2.07-1.05-3.15 0-2.8 1.56-4.96 4.69-6.47 2.91-1.51 6.28-2.67 10.11-3.48 3.83-.81 7.9-1.21 12.21-1.21zm.17 68.41c4.53 0 8.27-.46 11.24-1.37 2.96-.92 5.09-1.81 6.39-2.67v-23.45l-20.05 2.1c-5.61.43-9.76 1.67-12.45 3.72-2.7 2.05-4.04 5.01-4.04 8.89s1.59 7.12 4.77 9.38 7.9 3.4 14.15 3.4z"/><path class="prefix__cls-2" d="M126.67 9.57C95.26 34.04 56.44 48.83 16.8 51.75c-5.61.37-11.21.57-16.8.46 21.9-3.03 43.49-8.97 63.66-17.9 15-6.65 29.23-14.76 42.45-24.38 4.42-3.15 8.67-6.52 12.87-9.94l7.68 9.57z"/></g></svg>