<?xml version="1.0" encoding="UTF-8"?>
<svg id="Layer_2" data-name="Layer 2" xmlns="http://www.w3.org/2000/svg" viewBox="0 0 795.06 852.86">
  <defs>
    <style>
      .cls-1 {
        fill: #d34d23;
      }
    </style>
  </defs>
  <g id="Layer_1-2" data-name="Layer 1">
    <path class="cls-1" d="M0,426.43c0,86.2,16.22,161.41,48.84,225.47,32.62,64.06,78.76,113.58,138.09,148.57,59.49,34.82,129.3,52.4,209.75,52.4,80.28,0,150.59-17.58,210.59-52.4,60-34.99,106.31-84.51,138.93-148.57,32.62-64.06,48.85-139.27,48.85-225.47,0-87.38-16.57-162.76-49.69-226.31-33.3-63.55-79.95-112.74-139.95-147.72C545.59,17.41,475.95,0,396.68,0s-148.57,17.41-208.06,52.39c-59.33,34.99-105.64,84.17-138.93,147.72C16.56,263.67,0,339.05,0,426.43Z"/>
  </g>
</svg>