<?xml version="1.0" encoding="UTF-8"?>
<svg id="Layer_2" data-name="Layer 2" xmlns="http://www.w3.org/2000/svg" viewBox="0 0 575.21 621.32">
  <defs>
    <style>
      .cls-1 {
        fill: none;
        stroke: #d34d23;
        stroke-miterlimit: 10;
      }
    </style>
  </defs>
  <g id="Layer_1-2" data-name="Layer 1">
    <g>
      <path class="cls-1" d="M325.91,255.44c2.62,5.04,8.8,20.61,8.8,55.22s-6,50.32-9.57,57.34c-1.99,3.91-4.22,6.81-6.31,8.21-2.11,1.09-10.46,4.61-30.55,4.61-17.18,0-28.04-2.75-32.48-5.33-1.19-.69-2.73-1.59-5.74-7.5-3.57-7.01-9.56-23.79-9.56-57.33s6.34-50.5,9.06-55.73c3.23-6.16,5.35-7.72,8.22-9.39,4.18-2.45,14.36-5.04,30.5-5.04,20.79,0,28.31,4.07,29.1,4.54,2.3,1.35,4.95,3.57,8.53,10.4Z"/>
      <path class="cls-1" d="M379.06,227.59c-8.2-15.64-18.14-26.53-31.26-34.27-14.47-8.51-34.49-12.82-59.52-12.82s-45.73,4.44-60.73,13.21c-13.59,7.92-23.22,18.27-31.2,33.49-10.52,20.19-15.85,48.27-15.85,83.46s5.41,63.58,16.1,84.56c7.61,14.96,16.6,24.89,29.08,32.17,15.37,8.91,36.42,13.43,62.6,13.43s46.17-4.33,60.94-12.87c12.12-7.23,22.01-18.24,29.39-32.72,10.68-20.98,16.1-49.44,16.1-84.57s-5.28-63.16-15.65-83.07ZM351.87,381.61c-4.73,9.29-10.73,16.18-17.84,20.47-7.03,4.01-20.64,8.74-45.75,8.74-20.53,0-36.96-3.25-47.54-9.38-7.37-4.3-12.43-10.05-17.41-19.83-8.39-16.49-12.83-41.02-12.83-70.95s4.31-53.95,12.46-69.59c5.32-10.17,11.04-16.39,19.71-21.45,10.21-5.97,25.97-9.12,45.61-9.12,24.43,0,37.58,4.72,44.31,8.68,8.18,4.82,14.33,11.72,19.89,22.34,5.56,10.66,12.23,31.38,12.23,69.14,0,29.93-4.44,54.47-12.84,70.95Z"/>
      <path class="cls-1" d="M432.2,199.75c-13.42-25.62-31.09-44.65-53.99-58.15-23.8-14-54.06-21.1-89.93-21.1s-66.68,7.19-90.95,21.38c-23.26,13.56-40.99,32.41-54.18,57.59-15.03,28.83-22.65,66.24-22.65,111.19s7.61,82.3,22.63,111.79c12.8,25.13,29.97,43.73,52.44,56.83,24.63,14.29,55.82,21.54,92.71,21.54s67.26-7.11,91.33-21.13c22.15-13.12,39.8-32.38,52.47-57.24,15.01-29.49,22.63-67.1,22.63-111.79s-7.58-82.28-22.51-110.91ZM405.34,408.84c-10.02,19.68-23.79,34.81-40.93,44.98-19.41,11.28-45.03,17-76.13,17s-57.66-5.88-77.65-17.49c-17.55-10.23-30.52-24.38-40.77-44.5-12.85-25.23-19.36-58.26-19.36-98.17s6.48-72.81,19.25-97.32c10.62-20.27,24.2-34.76,42.69-45.55,19.63-11.48,45.14-17.29,75.84-17.29s55.59,5.71,74.72,16.96c17.92,10.57,31.88,25.69,42.63,46.21,12.65,24.27,19.08,56.92,19.08,96.99s-6.52,72.94-19.37,98.18Z"/>
      <path class="cls-1" d="M485.35,171.9c-18.76-35.81-43.87-62.65-76.73-82.02-33.14-19.5-73.63-29.38-120.34-29.38s-87.64,9.93-121.17,29.54c-33.3,19.42-58.55,46.16-77.17,81.69-19.53,37.49-29.44,84.23-29.44,138.93s9.81,101.01,29.16,139.01c18.19,35.71,43,62.38,75.8,81.51,33.89,19.67,75.21,29.64,122.82,29.64s88.33-9.89,121.73-29.4c32.18-19.01,57.59-46.52,75.53-81.74,19.35-38.01,29.17-84.78,29.17-139.02s-9.89-101.41-29.36-138.76ZM458.81,436.06c-15.3,30.05-36.84,53.43-64,69.5-28.73,16.76-64.57,25.26-106.53,25.26s-78.5-8.61-107.77-25.59c-27.63-16.11-48.62-38.75-64.11-69.17-17.19-33.74-25.9-75.94-25.9-125.4s8.76-91.9,26.05-125.06c15.9-30.36,37.39-53.15,65.67-69.64,28.9-16.9,64.57-25.46,106.06-25.46s76.66,8.49,105.14,25.24c27.87,16.44,49.26,39.37,65.36,70.08,17.19,32.99,25.93,75.01,25.93,124.84s-8.72,91.66-25.9,125.4Z"/>
      <path class="cls-1" d="M538.5,144.06c-24.11-46.01-56.65-80.66-99.46-105.9C396.55,13.17,345.83.5,288.28.5s-108.59,12.68-151.4,37.71c-43.32,25.27-76.09,59.89-100.14,105.79C12.69,190.13.5,246.2.5,310.66s12.01,119.73,35.7,166.24c23.57,46.29,56.02,81.03,99.14,106.17,43.17,25.05,94.62,37.75,152.94,37.75s109.39-12.67,152.11-37.66c42.21-24.9,75.4-60.66,98.62-106.26,23.69-46.51,35.7-102.45,35.7-166.24s-12.2-120.53-36.21-166.6ZM512.28,463.29c-20.59,40.42-49.88,72.04-87.09,94-38.06,22.25-84.12,33.53-136.91,33.53s-99.35-11.34-137.88-33.69c-37.96-22.14-66.59-52.85-87.47-93.84-21.52-42.26-32.43-93.61-32.43-152.63s11.05-110.98,32.84-152.79c21.34-40.72,50.35-71.4,88.66-93.74,38.16-22.32,84-33.63,136.28-33.63s97.73,11.28,135.55,33.52c37.83,22.31,66.66,53.05,88.09,93.96,21.75,41.71,32.79,93.1,32.79,152.68s-10.91,110.37-32.43,152.63Z"/>
      <path class="cls-1" d="M325.91,255.44c2.62,5.04,8.8,20.61,8.8,55.22s-6,50.32-9.57,57.34c-1.99,3.91-4.22,6.81-6.31,8.21-2.11,1.09-10.46,4.61-30.55,4.61-17.18,0-28.04-2.75-32.48-5.33-1.19-.69-2.73-1.59-5.74-7.5-3.57-7.01-9.56-23.79-9.56-57.33s6.34-50.5,9.06-55.73c3.23-6.16,5.35-7.72,8.22-9.39,4.18-2.45,14.36-5.04,30.5-5.04,20.79,0,28.31,4.07,29.1,4.54,2.3,1.35,4.95,3.57,8.53,10.4Z"/>
      <path class="cls-1" d="M379.06,227.59c-8.2-15.64-18.14-26.53-31.26-34.27-14.47-8.51-34.49-12.82-59.52-12.82s-45.73,4.44-60.73,13.21c-13.59,7.92-23.22,18.27-31.2,33.49-10.52,20.19-15.85,48.27-15.85,83.46s5.41,63.58,16.1,84.56c7.61,14.96,16.6,24.89,29.08,32.17,15.37,8.91,36.42,13.43,62.6,13.43s46.17-4.33,60.94-12.87c12.12-7.23,22.01-18.24,29.39-32.72,10.68-20.98,16.1-49.44,16.1-84.57s-5.28-63.16-15.65-83.07ZM351.87,381.61c-4.73,9.29-10.73,16.18-17.84,20.47-7.03,4.01-20.64,8.74-45.75,8.74-20.53,0-36.96-3.25-47.54-9.38-7.37-4.3-12.43-10.05-17.41-19.83-8.39-16.49-12.83-41.02-12.83-70.95s4.31-53.95,12.46-69.59c5.32-10.17,11.04-16.39,19.71-21.45,10.21-5.97,25.97-9.12,45.61-9.12,24.43,0,37.58,4.72,44.31,8.68,8.18,4.82,14.33,11.72,19.89,22.34,5.56,10.66,12.23,31.38,12.23,69.14,0,29.93-4.44,54.47-12.84,70.95Z"/>
      <path class="cls-1" d="M432.2,199.75c-13.42-25.62-31.09-44.65-53.99-58.15-23.8-14-54.06-21.1-89.93-21.1s-66.68,7.19-90.95,21.38c-23.26,13.56-40.99,32.41-54.18,57.59-15.03,28.83-22.65,66.24-22.65,111.19s7.61,82.3,22.63,111.79c12.8,25.13,29.97,43.73,52.44,56.83,24.63,14.29,55.82,21.54,92.71,21.54s67.26-7.11,91.33-21.13c22.15-13.12,39.8-32.38,52.47-57.24,15.01-29.49,22.63-67.1,22.63-111.79s-7.58-82.28-22.51-110.91ZM405.34,408.84c-10.02,19.68-23.79,34.81-40.93,44.98-19.41,11.28-45.03,17-76.13,17s-57.66-5.88-77.65-17.49c-17.55-10.23-30.52-24.38-40.77-44.5-12.85-25.23-19.36-58.26-19.36-98.17s6.48-72.81,19.25-97.32c10.62-20.27,24.2-34.76,42.69-45.55,19.63-11.48,45.14-17.29,75.84-17.29s55.59,5.71,74.72,16.96c17.92,10.57,31.88,25.69,42.63,46.21,12.65,24.27,19.08,56.92,19.08,96.99s-6.52,72.94-19.37,98.18Z"/>
      <path class="cls-1" d="M485.35,171.9c-18.76-35.81-43.87-62.65-76.73-82.02-33.14-19.5-73.63-29.38-120.34-29.38s-87.64,9.93-121.17,29.54c-33.3,19.42-58.55,46.16-77.17,81.69-19.53,37.49-29.44,84.23-29.44,138.93s9.81,101.01,29.16,139.01c18.19,35.71,43,62.38,75.8,81.51,33.89,19.67,75.21,29.64,122.82,29.64s88.33-9.89,121.73-29.4c32.18-19.01,57.59-46.52,75.53-81.74,19.35-38.01,29.17-84.78,29.17-139.02s-9.89-101.41-29.36-138.76ZM458.81,436.06c-15.3,30.05-36.84,53.43-64,69.5-28.73,16.76-64.57,25.26-106.53,25.26s-78.5-8.61-107.77-25.59c-27.63-16.11-48.62-38.75-64.11-69.17-17.19-33.74-25.9-75.94-25.9-125.4s8.76-91.9,26.05-125.06c15.9-30.36,37.39-53.15,65.67-69.64,28.9-16.9,64.57-25.46,106.06-25.46s76.66,8.49,105.14,25.24c27.87,16.44,49.26,39.37,65.36,70.08,17.19,32.99,25.93,75.01,25.93,124.84s-8.72,91.66-25.9,125.4Z"/>
      <path class="cls-1" d="M325.91,255.44c2.62,5.04,8.8,20.61,8.8,55.22s-6,50.32-9.57,57.34c-1.99,3.91-4.22,6.81-6.31,8.21-2.11,1.09-10.46,4.61-30.55,4.61-17.18,0-28.04-2.75-32.48-5.33-1.19-.69-2.73-1.59-5.74-7.5-3.57-7.01-9.56-23.79-9.56-57.33s6.34-50.5,9.06-55.73c3.23-6.16,5.35-7.72,8.22-9.39,4.18-2.45,14.36-5.04,30.5-5.04,20.79,0,28.31,4.07,29.1,4.54,2.3,1.35,4.95,3.57,8.53,10.4Z"/>
      <path class="cls-1" d="M379.06,227.59c-8.2-15.64-18.14-26.53-31.26-34.27-14.47-8.51-34.49-12.82-59.52-12.82s-45.73,4.44-60.73,13.21c-13.59,7.92-23.22,18.27-31.2,33.49-10.52,20.19-15.85,48.27-15.85,83.46s5.41,63.58,16.1,84.56c7.61,14.96,16.6,24.89,29.08,32.17,15.37,8.91,36.42,13.43,62.6,13.43s46.17-4.33,60.94-12.87c12.12-7.23,22.01-18.24,29.39-32.72,10.68-20.98,16.1-49.44,16.1-84.57s-5.28-63.16-15.65-83.07ZM351.87,381.61c-4.73,9.29-10.73,16.18-17.84,20.47-7.03,4.01-20.64,8.74-45.75,8.74-20.53,0-36.96-3.25-47.54-9.38-7.37-4.3-12.43-10.05-17.41-19.83-8.39-16.49-12.83-41.02-12.83-70.95s4.31-53.95,12.46-69.59c5.32-10.17,11.04-16.39,19.71-21.45,10.21-5.97,25.97-9.12,45.61-9.12,24.43,0,37.58,4.72,44.31,8.68,8.18,4.82,14.33,11.72,19.89,22.34,5.56,10.66,12.23,31.38,12.23,69.14,0,29.93-4.44,54.47-12.84,70.95Z"/>
      <path class="cls-1" d="M432.2,199.75c-13.42-25.62-31.09-44.65-53.99-58.15-23.8-14-54.06-21.1-89.93-21.1s-66.68,7.19-90.95,21.38c-23.26,13.56-40.99,32.41-54.18,57.59-15.03,28.83-22.65,66.24-22.65,111.19s7.61,82.3,22.63,111.79c12.8,25.13,29.97,43.73,52.44,56.83,24.63,14.29,55.82,21.54,92.71,21.54s67.26-7.11,91.33-21.13c22.15-13.12,39.8-32.38,52.47-57.24,15.01-29.49,22.63-67.1,22.63-111.79s-7.58-82.28-22.51-110.91ZM405.34,408.84c-10.02,19.68-23.79,34.81-40.93,44.98-19.41,11.28-45.03,17-76.13,17s-57.66-5.88-77.65-17.49c-17.55-10.23-30.52-24.38-40.77-44.5-12.85-25.23-19.36-58.26-19.36-98.17s6.48-72.81,19.25-97.32c10.62-20.27,24.2-34.76,42.69-45.55,19.63-11.48,45.14-17.29,75.84-17.29s55.59,5.71,74.72,16.96c17.92,10.57,31.88,25.69,42.63,46.21,12.65,24.27,19.08,56.92,19.08,96.99s-6.52,72.94-19.37,98.18Z"/>
      <path class="cls-1" d="M485.35,171.9c-18.76-35.81-43.87-62.65-76.73-82.02-33.14-19.5-73.63-29.38-120.34-29.38s-87.64,9.93-121.17,29.54c-33.3,19.42-58.55,46.16-77.17,81.69-19.53,37.49-29.44,84.23-29.44,138.93s9.81,101.01,29.16,139.01c18.19,35.71,43,62.38,75.8,81.51,33.89,19.67,75.21,29.64,122.82,29.64s88.33-9.89,121.73-29.4c32.18-19.01,57.59-46.52,75.53-81.74,19.35-38.01,29.17-84.78,29.17-139.02s-9.89-101.41-29.36-138.76ZM458.81,436.06c-15.3,30.05-36.84,53.43-64,69.5-28.73,16.76-64.57,25.26-106.53,25.26s-78.5-8.61-107.77-25.59c-27.63-16.11-48.62-38.75-64.11-69.17-17.19-33.74-25.9-75.94-25.9-125.4s8.76-91.9,26.05-125.06c15.9-30.36,37.39-53.15,65.67-69.64,28.9-16.9,64.57-25.46,106.06-25.46s76.66,8.49,105.14,25.24c27.87,16.44,49.26,39.37,65.36,70.08,17.19,32.99,25.93,75.01,25.93,124.84s-8.72,91.66-25.9,125.4Z"/>
      <path class="cls-1" d="M325.91,255.44c2.62,5.04,8.8,20.61,8.8,55.22s-6,50.32-9.57,57.34c-1.99,3.91-4.22,6.81-6.31,8.21-2.11,1.09-10.46,4.61-30.55,4.61-17.18,0-28.04-2.75-32.48-5.33-1.19-.69-2.73-1.59-5.74-7.5-3.57-7.01-9.56-23.79-9.56-57.33s6.34-50.5,9.06-55.73c3.23-6.16,5.35-7.72,8.22-9.39,4.18-2.45,14.36-5.04,30.5-5.04,20.79,0,28.31,4.07,29.1,4.54,2.3,1.35,4.95,3.57,8.53,10.4Z"/>
      <path class="cls-1" d="M379.06,227.59c-8.2-15.64-18.14-26.53-31.26-34.27-14.47-8.51-34.49-12.82-59.52-12.82s-45.73,4.44-60.73,13.21c-13.59,7.92-23.22,18.27-31.2,33.49-10.52,20.19-15.85,48.27-15.85,83.46s5.41,63.58,16.1,84.56c7.61,14.96,16.6,24.89,29.08,32.17,15.37,8.91,36.42,13.43,62.6,13.43s46.17-4.33,60.94-12.87c12.12-7.23,22.01-18.24,29.39-32.72,10.68-20.98,16.1-49.44,16.1-84.57s-5.28-63.16-15.65-83.07ZM351.87,381.61c-4.73,9.29-10.73,16.18-17.84,20.47-7.03,4.01-20.64,8.74-45.75,8.74-20.53,0-36.96-3.25-47.54-9.38-7.37-4.3-12.43-10.05-17.41-19.83-8.39-16.49-12.83-41.02-12.83-70.95s4.31-53.95,12.46-69.59c5.32-10.17,11.04-16.39,19.71-21.45,10.21-5.97,25.97-9.12,45.61-9.12,24.43,0,37.58,4.72,44.31,8.68,8.18,4.82,14.33,11.72,19.89,22.34,5.56,10.66,12.23,31.38,12.23,69.14,0,29.93-4.44,54.47-12.84,70.95Z"/>
      <path class="cls-1" d="M432.2,199.75c-13.42-25.62-31.09-44.65-53.99-58.15-23.8-14-54.06-21.1-89.93-21.1s-66.68,7.19-90.95,21.38c-23.26,13.56-40.99,32.41-54.18,57.59-15.03,28.83-22.65,66.24-22.65,111.19s7.61,82.3,22.63,111.79c12.8,25.13,29.97,43.73,52.44,56.83,24.63,14.29,55.82,21.54,92.71,21.54s67.26-7.11,91.33-21.13c22.15-13.12,39.8-32.38,52.47-57.24,15.01-29.49,22.63-67.1,22.63-111.79s-7.58-82.28-22.51-110.91ZM405.34,408.84c-10.02,19.68-23.79,34.81-40.93,44.98-19.41,11.28-45.03,17-76.13,17s-57.66-5.88-77.65-17.49c-17.55-10.23-30.52-24.38-40.77-44.5-12.85-25.23-19.36-58.26-19.36-98.17s6.48-72.81,19.25-97.32c10.62-20.27,24.2-34.76,42.69-45.55,19.63-11.48,45.14-17.29,75.84-17.29s55.59,5.71,74.72,16.96c17.92,10.57,31.88,25.69,42.63,46.21,12.65,24.27,19.08,56.92,19.08,96.99s-6.52,72.94-19.37,98.18Z"/>
      <path class="cls-1" d="M485.35,171.9c-18.76-35.81-43.87-62.65-76.73-82.02-33.14-19.5-73.63-29.38-120.34-29.38s-87.64,9.93-121.17,29.54c-33.3,19.42-58.55,46.16-77.17,81.69-19.53,37.49-29.44,84.23-29.44,138.93s9.81,101.01,29.16,139.01c18.19,35.71,43,62.38,75.8,81.51,33.89,19.67,75.21,29.64,122.82,29.64s88.33-9.89,121.73-29.4c32.18-19.01,57.59-46.52,75.53-81.74,19.35-38.01,29.17-84.78,29.17-139.02s-9.89-101.41-29.36-138.76ZM458.81,436.06c-15.3,30.05-36.84,53.43-64,69.5-28.73,16.76-64.57,25.26-106.53,25.26s-78.5-8.61-107.77-25.59c-27.63-16.11-48.62-38.75-64.11-69.17-17.19-33.74-25.9-75.94-25.9-125.4s8.76-91.9,26.05-125.06c15.9-30.36,37.39-53.15,65.67-69.64,28.9-16.9,64.57-25.46,106.06-25.46s76.66,8.49,105.14,25.24c27.87,16.44,49.26,39.37,65.36,70.08,17.19,32.99,25.93,75.01,25.93,124.84s-8.72,91.66-25.9,125.4Z"/>
      <path class="cls-1" d="M325.91,255.44c2.62,5.04,8.8,20.61,8.8,55.22s-6,50.32-9.57,57.34c-1.99,3.91-4.22,6.81-6.31,8.21-2.11,1.09-10.46,4.61-30.55,4.61-17.18,0-28.04-2.75-32.48-5.33-1.19-.69-2.73-1.59-5.74-7.5-3.57-7.01-9.56-23.79-9.56-57.33s6.34-50.5,9.06-55.73c3.23-6.16,5.35-7.72,8.22-9.39,4.18-2.45,14.36-5.04,30.5-5.04,20.79,0,28.31,4.07,29.1,4.54,2.3,1.35,4.95,3.57,8.53,10.4Z"/>
      <path class="cls-1" d="M379.06,227.59c-8.2-15.64-18.14-26.53-31.26-34.27-14.47-8.51-34.49-12.82-59.52-12.82s-45.73,4.44-60.73,13.21c-13.59,7.92-23.22,18.27-31.2,33.49-10.52,20.19-15.85,48.27-15.85,83.46s5.41,63.58,16.1,84.56c7.61,14.96,16.6,24.89,29.08,32.17,15.37,8.91,36.42,13.43,62.6,13.43s46.17-4.33,60.94-12.87c12.12-7.23,22.01-18.24,29.39-32.72,10.68-20.98,16.1-49.44,16.1-84.57s-5.28-63.16-15.65-83.07ZM351.87,381.61c-4.73,9.29-10.73,16.18-17.84,20.47-7.03,4.01-20.64,8.74-45.75,8.74-20.53,0-36.96-3.25-47.54-9.38-7.37-4.3-12.43-10.05-17.41-19.83-8.39-16.49-12.83-41.02-12.83-70.95s4.31-53.95,12.46-69.59c5.32-10.17,11.04-16.39,19.71-21.45,10.21-5.97,25.97-9.12,45.61-9.12,24.43,0,37.58,4.72,44.31,8.68,8.18,4.82,14.33,11.72,19.89,22.34,5.56,10.66,12.23,31.38,12.23,69.14,0,29.93-4.44,54.47-12.84,70.95Z"/>
      <path class="cls-1" d="M432.2,199.75c-13.42-25.62-31.09-44.65-53.99-58.15-23.8-14-54.06-21.1-89.93-21.1s-66.68,7.19-90.95,21.38c-23.26,13.56-40.99,32.41-54.18,57.59-15.03,28.83-22.65,66.24-22.65,111.19s7.61,82.3,22.63,111.79c12.8,25.13,29.97,43.73,52.44,56.83,24.63,14.29,55.82,21.54,92.71,21.54s67.26-7.11,91.33-21.13c22.15-13.12,39.8-32.38,52.47-57.24,15.01-29.49,22.63-67.1,22.63-111.79s-7.58-82.28-22.51-110.91ZM405.34,408.84c-10.02,19.68-23.79,34.81-40.93,44.98-19.41,11.28-45.03,17-76.13,17s-57.66-5.88-77.65-17.49c-17.55-10.23-30.52-24.38-40.77-44.5-12.85-25.23-19.36-58.26-19.36-98.17s6.48-72.81,19.25-97.32c10.62-20.27,24.2-34.76,42.69-45.55,19.63-11.48,45.14-17.29,75.84-17.29s55.59,5.71,74.72,16.96c17.92,10.57,31.88,25.69,42.63,46.21,12.65,24.27,19.08,56.92,19.08,96.99s-6.52,72.94-19.37,98.18Z"/>
      <path class="cls-1" d="M325.91,255.44c2.62,5.04,8.8,20.61,8.8,55.22s-6,50.32-9.57,57.34c-1.99,3.91-4.22,6.81-6.31,8.21-2.11,1.09-10.46,4.61-30.55,4.61-17.18,0-28.04-2.75-32.48-5.33-1.19-.69-2.73-1.59-5.74-7.5-3.57-7.01-9.56-23.79-9.56-57.33s6.34-50.5,9.06-55.73c3.23-6.16,5.35-7.72,8.22-9.39,4.18-2.45,14.36-5.04,30.5-5.04,20.79,0,28.31,4.07,29.1,4.54,2.3,1.35,4.95,3.57,8.53,10.4Z"/>
      <path class="cls-1" d="M379.06,227.59c-8.2-15.64-18.14-26.53-31.26-34.27-14.47-8.51-34.49-12.82-59.52-12.82s-45.73,4.44-60.73,13.21c-13.59,7.92-23.22,18.27-31.2,33.49-10.52,20.19-15.85,48.27-15.85,83.46s5.41,63.58,16.1,84.56c7.61,14.96,16.6,24.89,29.08,32.17,15.37,8.91,36.42,13.43,62.6,13.43s46.17-4.33,60.94-12.87c12.12-7.23,22.01-18.24,29.39-32.72,10.68-20.98,16.1-49.44,16.1-84.57s-5.28-63.16-15.65-83.07ZM351.87,381.61c-4.73,9.29-10.73,16.18-17.84,20.47-7.03,4.01-20.64,8.74-45.75,8.74-20.53,0-36.96-3.25-47.54-9.38-7.37-4.3-12.43-10.05-17.41-19.83-8.39-16.49-12.83-41.02-12.83-70.95s4.31-53.95,12.46-69.59c5.32-10.17,11.04-16.39,19.71-21.45,10.21-5.97,25.97-9.12,45.61-9.12,24.43,0,37.58,4.72,44.31,8.68,8.18,4.82,14.33,11.72,19.89,22.34,5.56,10.66,12.23,31.38,12.23,69.14,0,29.93-4.44,54.47-12.84,70.95Z"/>
      <path class="cls-1" d="M432.2,199.75c-13.42-25.62-31.09-44.65-53.99-58.15-23.8-14-54.06-21.1-89.93-21.1s-66.68,7.19-90.95,21.38c-23.26,13.56-40.99,32.41-54.18,57.59-15.03,28.83-22.65,66.24-22.65,111.19s7.61,82.3,22.63,111.79c12.8,25.13,29.97,43.73,52.44,56.83,24.63,14.29,55.82,21.54,92.71,21.54s67.26-7.11,91.33-21.13c22.15-13.12,39.8-32.38,52.47-57.24,15.01-29.49,22.63-67.1,22.63-111.79s-7.58-82.28-22.51-110.91ZM405.34,408.84c-10.02,19.68-23.79,34.81-40.93,44.98-19.41,11.28-45.03,17-76.13,17s-57.66-5.88-77.65-17.49c-17.55-10.23-30.52-24.38-40.77-44.5-12.85-25.23-19.36-58.26-19.36-98.17s6.48-72.81,19.25-97.32c10.62-20.27,24.2-34.76,42.69-45.55,19.63-11.48,45.14-17.29,75.84-17.29s55.59,5.71,74.72,16.96c17.92,10.57,31.88,25.69,42.63,46.21,12.65,24.27,19.08,56.92,19.08,96.99s-6.52,72.94-19.37,98.18Z"/>
      <path class="cls-1" d="M325.91,255.44c2.62,5.04,8.8,20.61,8.8,55.22s-6,50.32-9.57,57.34c-1.99,3.91-4.22,6.81-6.31,8.21-2.11,1.09-10.46,4.61-30.55,4.61-17.18,0-28.04-2.75-32.48-5.33-1.19-.69-2.73-1.59-5.74-7.5-3.57-7.01-9.56-23.79-9.56-57.33s6.34-50.5,9.06-55.73c3.23-6.16,5.35-7.72,8.22-9.39,4.18-2.45,14.36-5.04,30.5-5.04,20.79,0,28.31,4.07,29.1,4.54,2.3,1.35,4.95,3.57,8.53,10.4Z"/>
      <path class="cls-1" d="M379.06,227.59c-8.2-15.64-18.14-26.53-31.26-34.27-14.47-8.51-34.49-12.82-59.52-12.82s-45.73,4.44-60.73,13.21c-13.59,7.92-23.22,18.27-31.2,33.49-10.52,20.19-15.85,48.27-15.85,83.46s5.41,63.58,16.1,84.56c7.61,14.96,16.6,24.89,29.08,32.17,15.37,8.91,36.42,13.43,62.6,13.43s46.17-4.33,60.94-12.87c12.12-7.23,22.01-18.24,29.39-32.72,10.68-20.98,16.1-49.44,16.1-84.57s-5.28-63.16-15.65-83.07ZM351.87,381.61c-4.73,9.29-10.73,16.18-17.84,20.47-7.03,4.01-20.64,8.74-45.75,8.74-20.53,0-36.96-3.25-47.54-9.38-7.37-4.3-12.43-10.05-17.41-19.83-8.39-16.49-12.83-41.02-12.83-70.95s4.31-53.95,12.46-69.59c5.32-10.17,11.04-16.39,19.71-21.45,10.21-5.97,25.97-9.12,45.61-9.12,24.43,0,37.58,4.72,44.31,8.68,8.18,4.82,14.33,11.72,19.89,22.34,5.56,10.66,12.23,31.38,12.23,69.14,0,29.93-4.44,54.47-12.84,70.95Z"/>
      <path class="cls-1" d="M325.91,255.44c2.62,5.04,8.8,20.61,8.8,55.22s-6,50.32-9.57,57.34c-1.99,3.91-4.22,6.81-6.31,8.21-2.11,1.09-10.46,4.61-30.55,4.61-17.18,0-28.04-2.75-32.48-5.33-1.19-.69-2.73-1.59-5.74-7.5-3.57-7.01-9.56-23.79-9.56-57.33s6.34-50.5,9.06-55.73c3.23-6.16,5.35-7.72,8.22-9.39,4.18-2.45,14.36-5.04,30.5-5.04,20.79,0,28.31,4.07,29.1,4.54,2.3,1.35,4.95,3.57,8.53,10.4Z"/>
      <path class="cls-1" d="M379.06,227.59c-8.2-15.64-18.14-26.53-31.26-34.27-14.47-8.51-34.49-12.82-59.52-12.82s-45.73,4.44-60.73,13.21c-13.59,7.92-23.22,18.27-31.2,33.49-10.52,20.19-15.85,48.27-15.85,83.46s5.41,63.58,16.1,84.56c7.61,14.96,16.6,24.89,29.08,32.17,15.37,8.91,36.42,13.43,62.6,13.43s46.17-4.33,60.94-12.87c12.12-7.23,22.01-18.24,29.39-32.72,10.68-20.98,16.1-49.44,16.1-84.57s-5.28-63.16-15.65-83.07ZM351.87,381.61c-4.73,9.29-10.73,16.18-17.84,20.47-7.03,4.01-20.64,8.74-45.75,8.74-20.53,0-36.96-3.25-47.54-9.38-7.37-4.3-12.43-10.05-17.41-19.83-8.39-16.49-12.83-41.02-12.83-70.95s4.31-53.95,12.46-69.59c5.32-10.17,11.04-16.39,19.71-21.45,10.21-5.97,25.97-9.12,45.61-9.12,24.43,0,37.58,4.72,44.31,8.68,8.18,4.82,14.33,11.72,19.89,22.34,5.56,10.66,12.23,31.38,12.23,69.14,0,29.93-4.44,54.47-12.84,70.95Z"/>
      <path class="cls-1" d="M334.71,310.66c0,33.54-6,50.32-9.57,57.34-1.99,3.91-4.22,6.81-6.31,8.21-2.11,1.09-10.46,4.61-30.55,4.61-17.18,0-28.04-2.75-32.48-5.33-1.19-.69-2.73-1.59-5.74-7.5-3.57-7.01-9.56-23.79-9.56-57.33s6.34-50.5,9.06-55.73c3.23-6.16,5.35-7.72,8.22-9.39,4.18-2.45,14.36-5.04,30.5-5.04,20.79,0,28.31,4.07,29.1,4.54,2.3,1.35,4.95,3.57,8.53,10.4,2.62,5.04,8.8,20.61,8.8,55.22Z"/>
      <path class="cls-1" d="M334.71,310.66c0,33.54-6,50.32-9.57,57.34-1.99,3.91-4.22,6.81-6.31,8.21-2.11,1.09-10.46,4.61-30.55,4.61-17.18,0-28.04-2.75-32.48-5.33-1.19-.69-2.73-1.59-5.74-7.5-3.57-7.01-9.56-23.79-9.56-57.33s6.34-50.5,9.06-55.73c3.23-6.16,5.35-7.72,8.22-9.39,4.18-2.45,14.36-5.04,30.5-5.04,20.79,0,28.31,4.07,29.1,4.54,2.3,1.35,4.95,3.57,8.53,10.4,2.62,5.04,8.8,20.61,8.8,55.22Z"/>
    </g>
  </g>
</svg>