<?xml version="1.0" encoding="UTF-8"?>
<svg id="Layer_2" data-name="Layer 2" xmlns="http://www.w3.org/2000/svg" viewBox="0 0 74.97 70.1">
  <defs>
    <style>
      .cls-1 {
        fill: #417839;
      }
    </style>
  </defs>
  <g id="Layer_1-2" data-name="Layer 1">
    <g>
      <path class="cls-1" d="M31.32,28.19c-3.98-1.54-9.59-4.23-15.31-8.85C10.14,14.62,6.26,9.64,3.88,6.02"/>
      <path class="cls-1" d="M41.01,26.5c3.48,2.49,8.25,6.41,12.73,12.28,4.57,5.97,7.11,11.73,8.55,15.81"/>
      <path class="cls-1" d="M40.07,58.66c4.23-.7,10.39-1.19,17.7-.15,7.46,1.09,13.32,3.43,17.2,5.32"/>
      <path class="cls-1" d="M35.1,58.76c-4.18-.85-10.34-1.64-17.7-.85-7.51.8-13.42,2.88-17.4,4.62"/>
      <path class="cls-1" d="M7.36,63.88c3.83,1.94,9.55,4.28,16.85,5.47,7.41,1.19,13.72.75,18,.1"/>
      <path class="cls-1" d="M70.3,66.47c-4.18.99-10.29,1.99-17.65,1.44-7.51-.55-13.52-2.44-17.55-4.03"/>
      <path class="cls-1" d="M36.64,24.01c1.14,4.13,2.29,10.24,1.99,17.6-.3,7.51-2.04,13.57-3.48,17.65"/>
      <path class="cls-1" d="M46.73,10.59c0,2.14-.4,3.98-1.19,5.57s-1.94,2.83-3.43,3.68c-1.49.85-3.18,1.29-5.22,1.29s-3.73-.45-5.22-1.29-2.63-2.09-3.43-3.68c-.8-1.59-1.19-3.43-1.19-5.57s.4-4.03,1.24-5.62c.85-1.59,1.99-2.78,3.48-3.68,1.49-.85,3.23-1.29,5.17-1.29s3.68.45,5.17,1.29c1.49.85,2.63,2.09,3.43,3.68.8,1.59,1.19,3.48,1.19,5.62Z"/>
    </g>
  </g>
</svg>